<svg xmlns="http://www.w3.org/2000/svg" viewBox="0 0 81.63 18.633"><defs><clipPath id="a"><path d="M.058 0A5.633 5.633 0 000 .7a4.489 4.489 0 004.6 4.349A4.489 4.489 0 009.2.7a5.208 5.208 0 00-.061-.7H.058z" fill="none"/></clipPath><clipPath id="b"><path d="M7.424 7.866h-.349V0h2.067v6.248a1.66 1.66 0 01-1.718 1.618zm-1.777 0h-2.1V0h2.1v7.865zm-3.552 0h-.348A1.689 1.689 0 010 6.053V0h2.1v7.865z" fill="none"/></clipPath><clipPath id="c"><path fill="none" d="M0 0h61.748v1.088H0z"/></clipPath></defs><path d="M68.415 4.267a5.633 5.633 0 00-.058.7 4.489 4.489 0 004.6 4.349 4.489 4.489 0 004.6-4.349 5.208 5.208 0 00-.061-.7h-9.081z" fill="none"/><g clip-path="url(#a)" transform="translate(68.357 4.267)"><path fill="#fff" d="M0 0h9.229v5.048H0z"/></g><path d="M75.81 18.632h-.349v-7.866h2.067v6.248a1.66 1.66 0 01-1.718 1.618zm-1.777 0h-2.1v-7.866h2.1v7.865zm-3.552 0h-.348a1.689 1.689 0 01-1.747-1.813v-6.053h2.1v7.865z" fill="none"/><g clip-path="url(#b)" transform="translate(68.386 10.766)"><path fill="#fff" d="M0 0h9.17v7.866H0z"/></g><path d="M78.808 0H67.162a2.76 2.76 0 00-2.824 2.65v11.183a2.55 2.55 0 002.271 2.65V2.177H79.36v14.279a2.55 2.55 0 002.271-2.65V2.65A2.76 2.76 0 0078.807 0" fill="#fff"/><g><path fill="none" d="M.059 11.798h61.748v1.088H.059z"/><g clip-path="url(#c)" transform="translate(.059 11.798)"><path fill="#fff" d="M0 0h61.748v1.088H0z"/></g></g><path d="M39.39 17.098a1.921 1.921 0 01-.436-1.339 2.19 2.19 0 01.146-.921 1.457 1.457 0 01.291-.5 1.528 1.528 0 01.436-.334 1.826 1.826 0 01.7-.14 1.558 1.558 0 011.194.5 1.956 1.956 0 01.436 1.367 2 2 0 01-.436 1.367 1.491 1.491 0 01-1.165.5h-.067a1.451 1.451 0 01-1.099-.5zm-28.677 0a1.921 1.921 0 01-.436-1.339 2.808 2.808 0 01.146-.921 1.445 1.445 0 01.292-.5 1.143 1.143 0 01.435-.335 1.843 1.843 0 01.7-.14 1.6 1.6 0 011.194.5 1.955 1.955 0 01.436 1.367 2 2 0 01-.436 1.367 1.6 1.6 0 01-2.329 0zm39.769.222a1.234 1.234 0 01-.582-.67 2.067 2.067 0 01-.2-.949 2.146 2.146 0 01.2-1 1.808 1.808 0 01.641-.67 1.628 1.628 0 01.787-.167 1.446 1.446 0 01.96.279 1.251 1.251 0 01.436.781l-.67.139a1.045 1.045 0 00-.262-.418.631.631 0 00-.466-.167.9.9 0 00-.7.307 1.319 1.319 0 00-.262.893 1.516 1.516 0 00.262.976.84.84 0 00.67.307 1.173 1.173 0 00.408-.084 2.368 2.368 0 00.349-.223v-.445H51.3l.058-.614h1.427v1.422a2.052 2.052 0 01-.611.391 1.99 1.99 0 01-.787.167h-.036a1.619 1.619 0 01-.868-.255zm-24.835.223h-1.105v-3.6h1.31a3.153 3.153 0 01.582.027.765.765 0 01.349.14.685.685 0 01.262.307.646.646 0 01.116.418.878.878 0 01-.116.474.926.926 0 01-.349.307.626.626 0 01.436.363.968.968 0 01.146.53 1.1 1.1 0 01-.409.837 1.013 1.013 0 01-.435.167 4.779 4.779 0 01-.557.033q-.114.003-.229-.002zm17-.026V13.92h2.242v.613H43.32v.838h1.369v.614H43.32v1.535zm17.526 0v-2.986h-.961v-.611h2.592v.613h-.961v2.987zm-3.785 0V13.92h1.049a3.9 3.9 0 01.786.056 1.186 1.186 0 01.524.335 1.333 1.333 0 01.087 1.255.967.967 0 01-.291.363 1.027 1.027 0 01-.349.167 4.441 4.441 0 01-.7.056h-.435v1.368zm-2.3 0v-1.508L52.9 13.92h.785l.757 1.422.758-1.422h.757l-1.193 2.092v1.508zm-17.5 0l-.9-1.7-.524.614v1.089H34.5v-3.6h.67v1.59l1.31-1.59h.9l-1.252 1.394 1.31 2.2zm-3.465 0l-1.31-2.343v2.346h-.611v-3.6h.64l1.339 2.4v-2.4h.619v3.6zm-3.027 0l-.291-.809H28.5l-.262.809h-.7l1.281-3.6h.7l1.31 3.6zm-9.521 0v-3.57h.64v2.957h1.66v.616zm-1.105 0l-.291-.809h-1.31l-.262.809h-.7L18.2 13.92h.7l1.3 3.6zm-3.552 0l-1.339-2.343v2.346h-.611v-3.6h.641l1.339 2.4v-2.4h.64v3.6zm-6.842 0V13.92h.67v3.6zm-2.1 0v-2.986h-.96v-.611h2.59v.613h-.96v2.987zm-1.427 0l-.292-.809H3.96l-.26.812H3l1.28-3.6h.7l1.309 3.6zm-3.581 0L.671 15.173v2.347H.059v-3.6H.7l1.339 2.4v-2.4h.611v3.6zm44.732-.029v-3.6h2.446v.614h-1.78v.809h1.66v.615h-1.66v.976H49.2v.586zm4.6-1.282zM6.026 14.531zm20.117-4.35a7.43 7.43 0 012.329-1.311.57.57 0 01-.32.614 18.842 18.842 0 00-1.863 1.116c-.058 0-.408-.196-.146-.419zM3.96 10.46a1.1 1.1 0 01-1.077-1.2 3.83 3.83 0 01.407-1.254A3.753 3.753 0 01.263 6.72C-.464 5.663.5 3.82.991 3.459c.5-.335.087.669-.146 1.143A1.672 1.672 0 00.9 6.332a2.566 2.566 0 002.417.836C5.153 6.92 6.408 5.802 6.291 5.55c-.067-.144-.257-.141-.522-.139a2.935 2.935 0 01-.7-.056c-.554-.14-.875-.419-.816-.977A2.853 2.853 0 015.1 2.705a3.486 3.486 0 011.717-.808c.437-.056.582.25.495.725s-.116.642-.465.586c-.35-.028-.117-.28-.32-.307-.146-.028-.582.028-1.281.753-.2.223-.379.558-.233.67a.912.912 0 00.62.107 3.135 3.135 0 01.689.032c.582.084.961.418.932.921-.059.67-.874 1.31-1.661 1.841a5.6 5.6 0 01-2.125.809s-.292 1.506.67 1.562c.961.029 1.98-1.422 2.65-2.008a2.965 2.965 0 011.688-.893c.553-.084 1.048.391 1.222.5.175-.251.466-.669.728-.977a3.226 3.226 0 012.271-1.171c1.136.056 1.747.837 1.718 1.282s-.2.809-.175.921.844.167.931-.7a17.808 17.808 0 00-.2-2.957 26.319 26.319 0 00-.553-2.65l.495-.809a.124.124 0 01.175 0c.058.084 1.048 1.7 1.048 1.7s.087.112 0 .167a.253.253 0 01-.158 0 .362.362 0 00-.308.053c-.175.112-.146.307-.087.586a27.548 27.548 0 01.232 3.794.18.18 0 00.175.084c.348-.028.464-.223.843-.167a1.181 1.181 0 011.048 1.45 1.146 1.146 0 01-1.193.977 1.1 1.1 0 01-.757-.363c-.2-.251-.32-.725-.553-.67a1.756 1.756 0 00-.553.112 13.3 13.3 0 01-2.388.67 3.643 3.643 0 01-2.853-.251l-.349.307a2.078 2.078 0 01-.117-.335.391.391 0 01.059-.251s-.641-.474-1.136-.279a12.968 12.968 0 00-1.869 1.487c-.822.761-1.257 1.256-2.139 1.256zm51.208-.419c-.058-.056-.029-.167-.029-.167s.408-.53.5-.614a.3.3 0 01.2-.027 4.9 4.9 0 01.64.223c.146.084.087.252.087.279l-.553.67s-.757-.337-.845-.364zm-34-.056a2.616 2.616 0 01-1.283-2.065c0-.724.787-2.147 1.049-1.785.087.112-.933 1.395-.117 2.622a2.1 2.1 0 001.107.7 4.113 4.113 0 001.747 0A4.246 4.246 0 0026.29 8.12c.116-.222-.263-.25-.409-.278s-1.368 0-1.427-.056a3.682 3.682 0 01.117-.837s.057-.167.436-.223a1.7 1.7 0 001.223-1.755c-.086-.725-.377-1.786-.436-2.651a9.425 9.425 0 01.118-2.18c.087-.112.2-.223.262.056a49.808 49.808 0 00.9 5.634 2.685 2.685 0 003 1.255c1.66-.223 2.242-.391 2.534-.642 0 0 .319-.084.435-.725a6.161 6.161 0 01.787-2.064 2.1 2.1 0 01.611 1.757 2.434 2.434 0 01-.524 1.451s1.427.112 1.455 1.31c.029 1.283-.9 1.171-1.106 1.115a1.65 1.65 0 01-1.543-1.589c-.057-.364-.7-.029-.843.027a8.511 8.511 0 01-2.5.363 3.739 3.739 0 01-2.737-1.311c-.2-.14-.32-.112-.379 0s-.058.224.087.251a.731.731 0 01.641.5c.087.391-.437 1.646-2.329 2.426a4.381 4.381 0 01-3.493.028zM7.133 9.93a5.342 5.342 0 011.776-.977.424.424 0 01-.232.474 13.776 13.776 0 00-1.427.836c-.03.001-.292-.138-.117-.333zm7.075 0a5.334 5.334 0 011.776-.977.4.4 0 01-.233.446 15.86 15.86 0 00-1.455.837.014.014 0 01-.01 0c-.056.004-.268-.151-.079-.306zm3.843-.223a22.013 22.013 0 000-4.546 31.2 31.2 0 00-.728-3.849l.5-.809a.124.124 0 01.175 0c.087.084 1.077 1.7 1.077 1.7s.087.112 0 .167a.253.253 0 01-.157 0 .363.363 0 00-.309.053c-.175.112-.146.307-.087.586a17.925 17.925 0 01.409 3.6c-.03 1.674-.292 3.347-.787 3.4-.122.005-.094-.135-.094-.302zm21.922.027c.117-.781 0-4.128 0-4.128l-1.312 1.228a1.659 1.659 0 01.439 1.311 1.451 1.451 0 01-1.514 1.423c-.464-.027-.814-.113-.843-1.089a2.145 2.145 0 01.874-1.617l-5.011-4.769-.087-1.089s1.776 1.088 1.951 1.2c.175.139.145.251-.088.279s-.087.251-.087.251l3.875 3.514 1.747-1.589a13.338 13.338 0 00-.495-3.6s.291-.614.378-.725c.087-.084.175.056.175.056l.843 1.93a.159.159 0 01-.058.167c-.087.056-.117-.027-.262-.111s-.233.111-.233.111L40.5 4.1A34.255 34.255 0 0044.02.22c.116-.112.378-.223.291.167-.407 1.534-3.726 4.6-3.726 4.6s.029 2.566-.03 3.487A2.562 2.562 0 0140 9.997c-.04 0-.055-.077-.027-.263zm20.7-.446a25.384 25.384 0 00.058-4.575A31.063 31.063 0 0060 .864l.5-.808a.143.143 0 01.175.028c.058.084 1.049 1.7 1.049 1.7s.058.112-.03.167a.253.253 0 01-.158 0 .362.362 0 00-.308.053c-.175.112-.146.307-.087.586a17.982 17.982 0 01.408 3.6c-.029 1.673-.291 3.347-.786 3.4-.122.005-.092-.134-.092-.302zM44.4 9.457c-.931-.027-2.5-.81-2.242-2.2.261-1.423.669-1.7.843-1.618a.327.327 0 01.175.279 1.95 1.95 0 00-.495 1.143 1.074 1.074 0 00.436.837 3.216 3.216 0 002.155.614 4.035 4.035 0 003.29-1.73 39.179 39.179 0 00-.553-5.8l.465-.809s.146 0 .146.112a60.034 60.034 0 01.524 6.108c0 .363-.2 1.646.9 1.758.9.084 1.514-1.2 1.6-1.283.059-.084.262-.14.292.167.029.251-.176 1.255 1.455 1.228a5.3 5.3 0 003.144-1.479c.117-.084.175 0 .146.14a.769.769 0 00.931 1.032c.9-.139.67-1.2.67-1.2l-.175-1.367c-.029-.194-.058-.418-.087-.613v-.062l-.086-.694a25.135 25.135 0 00-.611-3.1l.5-.809a.124.124 0 01.175 0C58.082.226 59.1 1.82 59.1 1.82s.087.112 0 .167a.253.253 0 01-.157 0 .364.364 0 00-.309.053c-.175.112-.145.307-.087.586a19.6 19.6 0 01.2 2.259c.116 1.087.2 2.174.2 2.258-.029.2-.262 1.73-1.543 1.73-1.077 0-.814-.865-1.223-.865a5.45 5.45 0 01-2.417 1.2 2.077 2.077 0 01-2.1-.7c-.087-.166-.2-.139-.291-.027a1.268 1.268 0 01-1.193.725 1.254 1.254 0 01-1.282-1.2c-.03-.446-.32-.2-.408-.112a4.925 4.925 0 01-3.826 1.568 4.92 4.92 0 01-.264-.005zm-.613-2.79c.013-.04.211-.013.476.013a3.424 3.424 0 001.037-.013c.582-.14.815-.307.757-.446-.029-.251-.7-.139-.9-.418a1.746 1.746 0 01.117-1.451 1.7 1.7 0 01.99-.921c.32-.056.291.2.291.2v.5a.519.519 0 01-.408.307c-.349.028-.466.2-.466.363s.175.391.7.335.641.641.408 1.143c-.116.279-.262.725-1.252.948a1.928 1.928 0 01-.45.054 1.458 1.458 0 01-1.301-.614zm6.2-1.341c-.058-.028-.029-.14-.029-.14s.408-.53.495-.614a.3.3 0 01.2-.027s.494.168.64.2a.212.212 0 01.087.251l-.553.67s-.754-.313-.841-.34zm-26.96-.529a5.161 5.161 0 01-.233-.809c0-.028.117-.2.233-.2s.175.139.175.139-.03.809.379.725a.229.229 0 00.175-.167 3.413 3.413 0 00-.115-.528c-.029-.14-.175-.363.059-.418.2-.056.235.083.262.223s.174.725.436.641c.263-.084-.029-.753-.262-1.032 0 0 .146-.167.262 0a1.325 1.325 0 01.379 1.228c-.065.163-.332.162-.5.16a.576.576 0 00-.136.007c-.058.028-.145.307-.349.363a1.1 1.1 0 01-.29.051c-.182.003-.367-.073-.475-.383zm-3.227-.25a.2.2 0 01.087-.112 6.724 6.724 0 003.057-2.2c-.844-.615-.527-1.231-.382-1.399s.67-.642 1.049-.307c.378.307.146.949.146.949l.2.223c.059.78-.291.921-.291.921l-.263-.2a6.759 6.759 0 01-2.879 2.068 1.62 1.62 0 01-.541.122c-.13.002-.183-.036-.183-.065zM37 4.268a.878.878 0 01.116-.642s-.728-.251-.7-.725a1.309 1.309 0 01.843-1.088 1 1 0 01.843.223c.087.112.116.223-.029.307a1 1 0 01-.582.223c-.087 0-.525 0-.32.307.087.14.465.057.611-.027a5.483 5.483 0 01.7-.251c.116 0-.088.7-.088.7s-.029.083-.262.166a1.6 1.6 0 00-1.019.949.038.038 0 01-.028.015c-.015-.005-.049-.029-.085-.157zm5.618.029a.191.191 0 01.087-.112 6.724 6.724 0 003.057-2.2c-.844-.642-.5-1.228-.409-1.339.146-.167.67-.642 1.049-.307.378.307.146.949.146.949l.2.223c.058.78-.291.92-.291.92l-.263-.2a6.765 6.765 0 01-2.881 2.066 1.547 1.547 0 01-.509.117c-.141 0-.199-.055-.183-.117zm7.074-.56a1.051 1.051 0 01.379-.7 27.356 27.356 0 016.4-2.845l-.436.752a25.34 25.34 0 00-6.026 2.957.28.28 0 01-.32-.167zM2.93 3.553a.5.5 0 01-.281-.346 5.161 5.161 0 01-.233-.809c0-.028.116-.2.233-.2s.175.139.175.139-.03.809.378.725a.227.227 0 00.175-.167 3.463 3.463 0 00-.117-.53c-.059-.139-.175-.363.029-.39.2-.056.235.083.262.222s.174.726.436.642c.262-.113-.029-.754-.262-1.061 0 0 .146-.167.262 0a1.325 1.325 0 01.379 1.228c-.065.164-.335.162-.507.161a.577.577 0 00-.134.006c-.059.028-.146.307-.349.363a.507.507 0 01-.447.012zM.32 3.125a.1.1 0 01.059-.085A5.122 5.122 0 002.62 1.395C1.98.92 2.242.446 2.329.334c.088-.139.471-.474.757-.223.262.223.087.7.087.7l.146.167c.059.586-.2.7-.2.7l-.2-.14A5.045 5.045 0 01.787 3.067a1.227 1.227 0 01-.4.09C.313 3.16.291 3.139.32 3.125zm35.313-1.59A6.811 6.811 0 0137.963.22a.609.609 0 01-.32.613 21.321 21.321 0 00-1.892 1.116c-.059.004-.408-.191-.117-.414z" fill="#fff"/></svg>