<?xml version="1.0" encoding="UTF-8"?>
<svg width="98px" height="35px" viewBox="0 0 98 35" version="1.1" xmlns="http://www.w3.org/2000/svg" xmlns:xlink="http://www.w3.org/1999/xlink">
    <title>app store</title>
    <defs>
        <polygon id="path-1" points="0 0 97.3850704 0 97.3850704 34.3994974 0 34.3994974"></polygon>
    </defs>
    <g id="Symbols" stroke="none" stroke-width="1" fill="none" fill-rule="evenodd">
        <g id="footer" transform="translate(-960.000000, -245.000000)">
            <g id="Group-6" transform="translate(960.000000, 30.000000)">
                <g id="Group-9" transform="translate(0.000000, 215.000000)">
                    <g id="app-store" transform="translate(0.000000, 0.600503)">
                        <path d="M87.0723333,9.19243765 C86.4262006,9.19243765 86.1536039,9.77535076 86.111294,10.1973774 L87.9312244,10.1973774 C87.9402908,9.81737333 87.7692379,9.19243765 87.0723333,9.19243765 L87.0723333,9.19243765 Z M46.3883378,11.4472488 C46.3883378,11.8530668 46.6524725,12.0391668 46.9836986,12.0391668 C47.4092153,12.0391668 47.7065935,11.7690216 47.8087417,11.4730627 C47.8341277,11.3968217 47.8341277,11.3205808 47.8341277,11.2443398 L47.8341277,10.6794364 C47.0943087,10.6704315 46.3883378,10.8223131 46.3883378,11.4472488 L46.3883378,11.4472488 Z M66.5175772,9.23446022 C65.7777582,9.23446022 65.4797756,9.95244589 65.4797756,10.6362132 C65.4797756,11.4310401 65.879302,12.0307622 66.5091152,12.0307622 C67.104476,12.0307622 67.5209263,11.4562536 67.5209263,10.6200045 C67.5209263,9.97765943 67.2320101,9.23446022 66.5175772,9.23446022 L66.5175772,9.23446022 Z M59.489902,9.19243765 C58.8437693,9.19243765 58.571777,9.77535076 58.5288627,10.1973774 L60.348793,10.1973774 C60.357255,9.81737333 60.187411,9.19243765 59.489902,9.19243765 L59.489902,9.19243765 Z M51.9605522,9.29329183 C51.5356399,9.29329183 51.1445755,9.59765531 51.0339653,10.0539004 C51.0164369,10.1301413 50.9989085,10.222591 50.9989085,10.3240455 L50.9989085,10.9916041 C50.9989085,11.0756492 51.0079749,11.1602947 51.0248989,11.2365356 C51.1355091,11.6585623 51.5011875,11.9629258 51.9520902,11.9629258 C52.6072893,11.9629258 53.0068157,11.4472488 53.0068157,10.6115999 C53.0068157,9.88520977 52.6574568,9.29329183 51.9605522,9.29329183 L51.9605522,9.29329183 Z M88.8916592,22.7273078 L83.5303898,22.7273078 C83.5515448,23.5149309 83.8108441,24.1152533 84.3088921,24.5312768 C84.7597948,24.9046774 85.3436715,25.0907773 86.0611266,25.0907773 C86.8571572,25.0907773 87.5776344,24.9653099 88.2286025,24.7101729 L88.5102656,25.9438355 C87.7517095,26.2752135 86.8511129,26.4361 85.8114981,26.4361 C84.5675869,26.4361 83.5884149,26.0735052 82.8776085,25.3453141 C82.1668021,24.6171229 81.8077723,23.6391976 81.8077723,22.4133392 C81.8077723,21.206691 82.1408117,20.2065538 82.8008462,19.4033224 C83.4989596,18.5496638 84.4364262,18.1234349 85.6144549,18.1234349 C86.776164,18.1234349 87.6513746,18.5496638 88.2449221,19.4033224 C88.7181886,20.0846883 88.9563329,20.9233388 88.9563329,21.9204744 C88.9563329,22.236244 88.9333647,22.5045882 88.8916592,22.7273078 L88.8916592,22.7273078 Z M81.5170428,10.222591 L81.5170428,12.689316 L80.4713837,12.689316 L80.4713837,6.69209461 L81.5170428,6.69209461 L81.5170428,9.13300573 L81.5339668,9.13300573 C81.6615009,8.93910157 81.8404114,8.77881548 82.0525653,8.66895647 C82.2653237,8.55009262 82.51193,8.48285651 82.7760647,8.48285651 C83.4820357,8.48285651 84.2218546,8.94690577 84.2218546,10.2652139 L84.2218546,12.689316 L83.1755911,12.689316 L83.1755911,10.3750729 C83.1755911,9.78375527 82.9543707,9.32751021 82.3759339,9.32751021 C81.9679455,9.32751021 81.6784249,9.59765531 81.5599571,9.91042331 C81.5255048,10.0034733 81.5170428,10.112732 81.5170428,10.222591 L81.5170428,10.222591 Z M81.245655,19.8637697 C81.0697667,19.8325529 80.880581,19.8187455 80.6835377,19.8187455 C80.0549334,19.8187455 79.5707872,20.0546722 79.2274725,20.5241244 C78.9288855,20.9413485 78.7808008,21.4600271 78.7808008,22.0999708 L78.7808008,26.2896213 L76.994114,26.2896213 L76.994114,20.8152808 C76.994114,19.9003894 76.9783989,19.0617389 76.9463642,18.3035316 L78.500951,18.3035316 L78.5680424,19.8325529 L78.617001,19.8325529 C78.8031646,19.3084714 79.0999384,18.8852441 79.50974,18.5694745 C79.9074531,18.28192 80.3390142,18.1432455 80.8020054,18.1432455 C80.9658052,18.1432455 81.1163076,18.1522504 81.245655,18.1732616 L81.245655,19.8637697 Z M76.6592613,8.57590649 L77.2461601,8.57590649 L77.2461601,7.80689342 L78.2754997,7.51933896 L78.2754997,8.57590649 L79.2703869,8.57590649 L79.2703869,9.35272375 L78.2754997,9.35272375 L78.2754997,11.1686992 C78.2754997,11.6759717 78.4114958,11.9293077 78.8110222,11.9293077 C78.9983946,11.9293077 79.1005428,11.9203029 79.219615,11.8866848 L79.2365389,12.6719066 C79.0830144,12.7313385 78.8025602,12.782366 78.4797961,12.782366 C78.0887317,12.782366 77.7732207,12.6556979 77.5779907,12.4443844 C77.3483083,12.2078574 77.2461601,11.8278532 77.2461601,11.2869627 L77.2461601,9.35272375 L76.6592613,9.35272375 L76.6592613,8.57590649 Z M74.8133406,25.257667 C74.0717084,26.065701 73.0901186,26.4703183 71.8691757,26.4703183 C70.686916,26.4703183 69.7434052,26.08251 69.0440829,25.3044921 C68.3447606,24.5282752 67.9954017,23.5437464 67.9954017,22.3623118 C67.9954017,21.1256475 68.3556403,20.1111025 69.0779308,19.3234795 C69.8020346,18.5322545 70.7721403,18.1426452 71.9967098,18.1426452 C73.1813871,18.1426452 74.1285246,18.5280522 74.8453753,19.3096721 C75.5271691,20.0606754 75.8698794,21.0386007 75.8698794,22.2320418 C75.8698794,23.4627028 75.5193116,24.4658417 74.8133406,25.257667 L74.8133406,25.257667 Z M66.4752672,12.782366 C65.3099316,12.782366 64.3996642,11.9881393 64.3996642,10.662027 C64.3996642,9.31070118 65.2930076,8.48285651 66.5429631,8.48285651 C67.7759946,8.48285651 68.6010377,9.34431923 68.6010377,10.5941906 C68.6010377,12.1064029 67.5293883,12.782366 66.4752672,12.782366 L66.4752672,12.782366 Z M67.4828474,19.6332459 L65.5106014,19.6332459 L65.5106014,23.5149309 C65.5106014,24.50006 65.8605648,24.9887225 66.5562605,24.9887225 C66.8760025,24.9887225 67.1383239,24.9653099 67.349269,24.9118812 L67.4000409,26.2560032 C67.046451,26.3874738 66.5846686,26.4535093 66.0104627,26.4535093 C65.3081183,26.4535093 64.7526497,26.2427961 64.3573543,25.8129652 C63.9566191,25.3879369 63.7589714,24.6687506 63.7589714,23.6614096 L63.7589714,19.6332459 L62.5851737,19.6332459 L62.5851737,18.3035316 L63.7589714,18.3035316 L63.7589714,16.8417464 L65.5106014,16.3158639 L65.5106014,18.3035316 L67.4828474,18.3035316 L67.4828474,19.6332459 Z M61.1841114,25.4839885 C60.4539634,26.1311362 59.4427567,26.4523087 58.1456559,26.4523087 C56.9428457,26.4523087 55.9818064,26.2211845 55.2552849,25.7637388 L55.6705264,24.2851446 C56.4532597,24.7425903 57.3127552,24.9749151 58.2484085,24.9749151 C58.9241581,24.9749151 59.4463832,24.8224332 59.8217325,24.5234726 C60.1946641,24.2233114 60.382641,23.8210953 60.382641,23.3114216 C60.382641,22.8677833 60.2279076,22.4895801 59.9208586,22.1816147 C59.6089741,21.8748499 59.1006509,21.592098 58.3825913,21.3273558 C56.4327091,20.6063686 55.4553503,19.5486004 55.4553503,18.1582536 C55.4553503,17.2481647 55.7962473,16.5019639 56.4865032,15.9214521 C57.1761546,15.3427412 58.0888397,15.0515849 59.2263717,15.0515849 C60.2399961,15.0515849 61.084381,15.2280797 61.7583173,15.5762667 L61.3074146,17.0224435 C60.6788103,16.6838616 59.9643773,16.5121694 59.1677423,16.5121694 C58.5379291,16.5121694 58.0441121,16.6712548 57.6887089,16.9708158 C57.3919351,17.2481647 57.2420372,17.5831447 57.2420372,17.9763559 C57.2420372,18.4109893 57.4136945,18.7741844 57.7545915,19.0629395 C58.0531785,19.3246801 58.5941409,19.6086326 59.3744564,19.9141968 C60.3373089,20.2948012 61.0408622,20.746844 61.494787,21.2631213 C61.9456897,21.778198 62.1729544,22.4175414 62.1729544,23.1835529 C62.1729544,24.1260591 61.8411238,24.8950722 61.1841114,25.4839885 L61.1841114,25.4839885 Z M52.1902346,12.782366 C51.6541076,12.782366 51.177819,12.5800573 50.8804408,12.0727848 L50.8635168,12.0727848 L50.8127449,12.689316 L49.9194015,12.689316 C49.9369299,12.410166 49.9538539,11.9545213 49.9538539,11.5318943 L49.9538539,6.69209461 L50.9989085,6.69209461 L50.9989085,9.14141024 L51.0164369,9.14141024 C51.2715052,8.7445971 51.7224079,8.48285651 52.3431546,8.48285651 C53.3555702,8.48285651 54.0778607,9.31910569 54.0693988,10.5689771 C54.0693988,12.0475713 53.1258879,12.782366 52.1902346,12.782366 L52.1902346,12.782366 Z M50.9632473,25.421555 C50.2971685,26.11973 49.4727298,26.4703183 48.4844913,26.4703183 C47.420095,26.4703183 46.6554946,26.0933158 46.1906901,25.3351086 L46.1906901,29.5289613 L44.4033988,29.5289613 L44.4033988,20.9281414 C44.4033988,20.0738825 44.3804306,19.2004134 44.3375162,18.3035316 L45.9054004,18.3035316 L46.0087575,19.568411 L46.0389788,19.568411 C46.6385706,18.6187009 47.540376,18.1426452 48.7534614,18.1426452 C49.7024122,18.1426452 50.4936074,18.5118435 51.1276515,19.259245 C51.7635089,20.0024442 52.0796244,20.985172 52.0796244,22.1996244 C52.0796244,23.5623564 51.7085061,24.6315307 50.9632473,25.421555 L50.9632473,25.421555 Z M42.9437071,12.689316 L43.9887617,12.689316 L43.9887617,6.69269493 L42.9437071,6.69269493 L42.9437071,12.689316 Z M42.1295436,25.421555 C41.4652781,26.11973 40.6372129,26.4703183 39.6513921,26.4703183 C38.5839736,26.4703183 37.8205821,26.0933158 37.3557775,25.3351086 L37.3557775,29.5289613 L35.5702996,29.5289613 L35.5702996,20.9281414 C35.5702996,20.0738825 35.5473313,19.2004134 35.5019993,18.3035316 L37.07351,18.3035316 L37.1720317,19.568411 L37.2034619,19.568411 C37.8018448,18.6187009 38.7054635,18.1426452 39.9197578,18.1426452 C40.8687085,18.1426452 41.657486,18.5118435 42.2957611,19.259245 C42.927992,20.0024442 43.2459207,20.985172 43.2459207,22.1996244 C43.2459207,23.5623564 42.8748024,24.6315307 42.1295436,25.421555 L42.1295436,25.421555 Z M35.1332987,11.5571078 C35.1332987,10.5269545 36.06049,9.99446846 37.5915041,10.0034733 L37.5915041,9.93563686 C37.5915041,9.66549175 37.4802895,9.2176512 36.7489326,9.2176512 C36.3403398,9.2176512 35.9160319,9.34431923 35.6349733,9.52201468 L35.4312813,8.84605159 C35.736517,8.65995163 36.272644,8.48285651 36.9278431,8.48285651 C38.2539564,8.48285651 38.6371632,9.31910569 38.6371632,10.222591 L38.6371632,11.7011852 C38.6371632,12.0727848 38.6540872,12.4359799 38.7054635,12.689316 L37.7607438,12.689316 L37.6845859,12.2330709 L37.6592,12.2330709 C37.4125937,12.5542434 36.978615,12.782366 36.4346305,12.782366 C35.6011253,12.782366 35.1332987,12.1826438 35.1332987,11.5571078 L35.1332987,11.5571078 Z M32.980329,12.689316 L31.9509894,12.689316 L30.4115133,8.57590649 L31.5430011,8.57590649 L32.2139153,10.662027 C32.3335918,11.0252221 32.4182117,11.3547991 32.4949739,11.6927807 L32.5209643,11.6927807 C32.5971221,11.3547991 32.6908083,11.0330263 32.8014185,10.662027 L33.4650796,8.57590649 L34.562115,8.57590649 L32.980329,12.689316 Z M32.5741539,26.2896213 L31.5327258,23.0388752 L27.9085802,23.0388752 L26.9149019,26.2896213 L25.0635414,26.2896213 L28.6508169,15.2148726 L30.8702736,15.2148726 L34.4780996,26.2896213 L32.5741539,26.2896213 Z M19.9482739,25.8735978 C19.9482739,26.8767366 19.125044,27.6895733 18.1156506,27.6895733 L10.261119,27.6895733 C9.25051668,27.6895733 8.42728682,26.8767366 8.42728682,25.8735978 L8.42728682,8.53808617 C8.42728682,7.53494734 9.25051668,6.71970944 10.261119,6.71970944 L18.1156506,6.71970944 C19.125044,6.71970944 19.9482739,7.53494734 19.9482739,8.53808617 L19.9482739,25.8735978 Z M26.9142975,6.99585778 L28.2494772,6.99585778 L30.1117174,12.689316 L28.9808341,12.689316 L28.4622356,11.0756492 L26.6501628,11.0756492 L26.1569502,12.689316 L25.0768388,12.689316 L26.9142975,6.99585778 Z M40.2552149,12.689316 L41.3002695,12.689316 L41.3002695,8.57590649 L40.2552149,8.57590649 L40.2552149,12.689316 Z M40.7822754,6.86078522 C41.1394919,6.86078522 41.3607122,7.10631711 41.3691742,7.4268893 C41.3691742,7.73065246 41.1394919,7.98458886 40.773209,7.98458886 C40.4244545,7.98458886 40.1953766,7.73065246 40.1953766,7.4268893 C40.1953766,7.10631711 40.4335209,6.86078522 40.7822754,6.86078522 L40.7822754,6.86078522 Z M46.9667746,9.2176512 C46.5587862,9.2176512 46.1338739,9.34431923 45.8534197,9.52201468 L45.6491233,8.84605159 C45.9549635,8.65995163 46.490486,8.48285651 47.1450806,8.48285651 C48.4724028,8.48285651 48.8550052,9.31910569 48.8550052,10.222591 L48.8550052,11.7011852 C48.8550052,12.0727848 48.8719292,12.4359799 48.9227011,12.689316 L47.9785858,12.689316 L47.9024279,12.2330709 L47.877042,12.2330709 C47.6304357,12.5542434 47.1964569,12.782366 46.6524725,12.782366 C45.8183629,12.782366 45.3511407,12.1826438 45.3511407,11.5571078 C45.3511407,10.5269545 46.2777276,9.99446846 47.8087417,10.0034733 L47.8087417,9.93563686 C47.8087417,9.66549175 47.6975271,9.2176512 46.9667746,9.2176512 L46.9667746,9.2176512 Z M55.2625381,12.6887157 L56.3075927,12.6887157 L56.3075927,6.69209461 L55.2625381,6.69209461 L55.2625381,12.6887157 Z M59.5497403,8.48285651 C60.8927775,8.48285651 61.3358227,9.58084628 61.3358227,10.4849319 C61.3358227,10.6794364 61.3188987,10.831318 61.3013703,10.9237676 L58.5288627,10.9237676 C58.5542487,11.6669668 59.1326855,11.9881393 59.8048086,11.9881393 C60.2889547,11.9881393 60.6292473,11.9124987 60.9526158,11.8020394 L61.1055359,12.5122209 C60.7483194,12.6635021 60.2557113,12.7733611 59.659746,12.7733611 C58.3167088,12.7733611 57.5255135,11.9545213 57.5255135,10.6962454 C57.5255135,9.55503242 58.2230225,8.48285651 59.5497403,8.48285651 L59.5497403,8.48285651 Z M70.533996,8.57590649 L70.5847679,9.19243765 L70.6107582,9.19243765 C70.7969218,8.87126514 71.2478245,8.48285651 71.9368715,8.48285651 C72.6597665,8.48285651 73.4086518,8.94690577 73.4086518,10.2478045 L73.4086518,12.689316 L72.3623883,12.689316 L72.3623883,10.3660681 C72.3623883,9.77535076 72.1411679,9.32751021 71.5711931,9.32751021 C71.1547427,9.32751021 70.8658265,9.62286886 70.7546119,9.93563686 C70.7201595,10.0202823 70.70384,10.1469504 70.70384,10.2652139 L70.70384,12.689316 L69.6575765,12.689316 L69.6575765,9.8005643 C69.6575765,9.32751021 69.6406525,8.93069706 69.6237286,8.57590649 L70.533996,8.57590649 Z M87.1321716,8.48285651 C88.4752088,8.48285651 88.918254,9.58084628 88.918254,10.4849319 C88.918254,10.6794364 88.9007256,10.831318 88.8838016,10.9237676 L86.111294,10.9237676 C86.13668,11.6669668 86.7151168,11.9881393 87.3872399,11.9881393 C87.8713861,11.9881393 88.212283,11.9124987 88.5350471,11.8020394 L88.6879672,12.5122209 C88.3307507,12.6635021 87.8381426,12.7733611 87.2421773,12.7733611 C85.8991401,12.7733611 85.1079449,11.9545213 85.1079449,10.6962454 C85.1079449,9.55503242 85.8048494,8.48285651 87.1321716,8.48285651 L87.1321716,8.48285651 Z M27.8414888,8.88807417 C27.7302742,8.54168811 27.6371924,8.15327948 27.5519682,7.82430277 L27.5344398,7.82430277 C27.44982,8.15327948 27.3561338,8.55009262 27.2624476,8.88807417 L26.8206113,10.2904274 L28.2917871,10.2904274 L27.8414888,8.88807417 Z M37.5915041,11.4730627 C37.6162857,11.3968217 37.6162857,11.3205808 37.6162857,11.2443398 L37.6162857,10.6794364 C36.8764668,10.6704315 36.1711002,10.8223131 36.1711002,11.4472488 C36.1711002,11.8530668 36.4346305,12.0391668 36.766461,12.0391668 C37.1913733,12.0391668 37.4887515,11.7690216 37.5915041,11.4730627 L37.5915041,11.4730627 Z M85.4820853,19.3540959 C84.898813,19.3540959 84.4249421,19.6014288 84.0598681,20.0804861 C83.7618855,20.4622912 83.5841839,20.9233388 83.5303898,21.4576258 L87.2524526,21.4576258 C87.261519,20.9335443 87.1484911,20.4809012 86.9067202,20.0948938 C86.5960447,19.6044304 86.1209649,19.3540959 85.4820853,19.3540959 L85.4820853,19.3540959 Z M29.7115866,16.6946674 L29.6801564,16.6946674 C29.5677329,17.1653202 29.3936579,17.8598933 29.1488649,18.7813883 L28.222278,21.6737419 L31.2160059,21.6737419 L30.276726,18.7813883 C30.1751823,18.4842287 29.9859966,17.7878546 29.7115866,16.6946674 L29.7115866,16.6946674 Z M48.1750246,19.5510017 C47.7319795,19.5510017 47.3366841,19.6950791 46.9764454,19.9856351 C46.6180201,20.2797931 46.3828979,20.6603976 46.2716833,21.1316507 C46.2166804,21.3519691 46.1906901,21.5314655 46.1906901,21.6743422 L46.1906901,23.0040565 C46.1906901,23.5857689 46.3671828,24.0768327 46.7274214,24.4766475 C47.0852423,24.8728603 47.5518601,25.0739683 48.1230439,25.0739683 C48.7993979,25.0739683 49.3222274,24.8182309 49.6975767,24.3019536 C50.0735305,23.7874773 50.2621118,23.1085126 50.2621118,22.2620579 C50.2621118,21.4864413 50.0844102,20.8446966 49.7326335,20.3422267 C49.3433824,19.8187455 48.8247839,19.5510017 48.1750246,19.5510017 L48.1750246,19.5510017 Z M71.9308272,19.4405423 C71.2163943,19.4405423 70.6693877,19.756312 70.2964561,20.3902525 C69.9730875,20.912533 69.8147276,21.5500755 69.8147276,22.3046808 C69.8147276,23.0388752 69.9730875,23.6656118 70.2964561,24.189093 C70.6790585,24.8224332 71.2194164,25.1382028 71.9181343,25.1382028 C72.5975105,25.1382028 73.1342418,24.8182309 73.5180531,24.1692824 C73.8516969,23.6391976 74.01731,23.0040565 74.01731,22.273464 C74.01731,21.5428716 73.8583456,20.912533 73.5398125,20.3902525 C73.1596278,19.756312 72.6271274,19.4405423 71.9308272,19.4405423 L71.9308272,19.4405423 Z M39.3382988,19.5510017 C38.8982758,19.5510017 38.5005627,19.6950791 38.1409285,19.9856351 C37.7812943,20.2797931 37.5479854,20.6603976 37.4373752,21.1316507 C37.3829768,21.3519691 37.3557775,21.5314655 37.3557775,21.6743422 L37.3557775,23.0040565 C37.3557775,23.5857689 37.5316659,24.0768327 37.8925089,24.4766475 C38.2503298,24.8728603 38.7169476,25.0739683 39.2893402,25.0739683 C39.9608588,25.0739683 40.4885238,24.8182309 40.8626642,24.3019536 C41.2374091,23.7874773 41.4235727,23.1085126 41.4235727,22.2620579 C41.4235727,21.4864413 41.2488932,20.8446966 40.8959077,20.3422267 C40.5078654,19.8187455 39.9898713,19.5510017 39.3382988,19.5510017 L39.3382988,19.5510017 Z M9.54124617,24.0342098 L18.834919,24.0342098 L18.834919,10.3822768 L9.54124617,10.3822768 L9.54124617,24.0342098 Z M14.1868737,24.8398425 C13.6658575,24.8398425 13.2409451,25.2636702 13.2409451,25.7829491 C13.2409451,26.3010274 13.6658575,26.7230541 14.1868737,26.7230541 C14.7103077,26.7230541 15.1340111,26.3010274 15.1340111,25.7829491 C15.1340111,25.2636702 14.7103077,24.8398425 14.1868737,24.8398425 L14.1868737,24.8398425 Z M13.2766063,8.98952866 L15.0977455,8.98952866 C15.2168177,8.98952866 15.3141305,8.89227642 15.3141305,8.77881548 C15.3141305,8.65875099 15.2168177,8.56209907 15.0977455,8.56209907 L13.2766063,8.56209907 C13.1611607,8.56209907 13.0620347,8.65875099 13.0620347,8.77881548 C13.0620347,8.89227642 13.1611607,8.98952866 13.2766063,8.98952866 L13.2766063,8.98952866 Z" id="Fill-1" fill="#FFFFFF"></path>
                        <g id="Group-5" transform="translate(0.000000, 0.000000)">
                            <mask id="mask-2" fill="white">
                                <use xlink:href="#path-1"></use>
                            </mask>
                            <g id="Clip-4"></g>
                            <path d="M4.668354,1.20064492 C2.76078173,1.20064492 1.20861265,2.74227299 1.20861265,4.63689067 L1.20861265,29.7681898 C1.20861265,31.6598058 2.76078173,33.1990326 4.668354,33.1990326 L92.7158702,33.1990326 C94.6234424,33.1990326 96.1762159,31.6598058 96.1762159,29.7681898 L96.1762159,4.63689067 C96.1762159,2.74227299 94.6234424,1.20064492 92.7158702,1.20064492 L4.668354,1.20064492 Z M92.7158702,34.3996775 L4.668354,34.3996775 C2.09409851,34.3996775 -0.000241770884,32.3219615 -0.000241770884,29.7681898 L-0.000241770884,4.63689067 C-0.000241770884,2.08011732 2.09409851,0 4.668354,0 L92.7158702,0 C95.2907301,0 97.3850704,2.08011732 97.3850704,4.63689067 L97.3850704,29.7681898 C97.3850704,32.3219615 95.2907301,34.3996775 92.7158702,34.3996775 L92.7158702,34.3996775 Z" id="Fill-3" fill="#FFFFFF" mask="url(#mask-2)"></path>
                        </g>
                    </g>
                </g>
            </g>
        </g>
    </g>
</svg>