<svg viewBox="0 0 188 104" xmlns="http://www.w3.org/2000/svg"><g fill="#fff"><path d="M38.54 1.54c1.49-1.32 3.69-.43 5.47-.55-.01 2.66-.01 5.33 0 7.99 2.65.23 7.66-1.16 7.81 2.87-.73 3.59-5.16 2.12-7.75 2.38.08 6.85-.47 13.78.26 20.58 2.24 1.34 5.03.54 7.41 1.42 1.41 1.07.91 3 1.17 4.52-3.61.02-7.29.3-10.81-.65-2.24-.54-3.82-2.75-3.82-5.02-.32-6.88.24-13.79-.26-20.67-1.6-.41-4.2-.02-4.26-2.34-.64-2.82 2.44-3.11 4.41-3.31.09-2.4-.27-4.88.37-7.22zM57.25 1.24C59 .48 60.82.18 62.68.77c.25 2.04.2 4.11-.55 6.05-1.65-.04-3.29-.05-4.93-.04.03-1.85.05-3.69.05-5.54zM129.19 1.12c1.87-.07 3.74-.1 5.62-.12-.05 13.25.02 26.51-.04 39.77-1.92.02-3.83.04-5.74.07.04-13.24-.26-26.49.16-39.72zM172.13 1.11c1.77-.05 3.55-.09 5.33-.14.09 2.62.09 5.23-.05 7.84 2.14.13 4.29.08 6.41.4 2 .63 2.1 4.15.12 4.84-2.05.4-4.14.19-6.19.13-.42 6.25-.24 12.53-.15 18.79-.23 3.58 4.18 2.67 6.45 3.13 2.78-.3 2.44 3.11 2.52 4.95-3.62-.14-7.32.15-10.86-.75-2.34-.55-3.89-2.89-3.71-5.25-.07-6.88.07-13.77-.05-20.66-1.69-.25-4.74.1-4.53-2.49-.46-2.83 2.64-2.86 4.57-3.12-.02-2.56 0-5.11.14-7.67zM3.94 17c4.12-8.74 17.31-10.82 24.1-4.08 2.53 2.57 4.29 6.41 3.21 10.03-.96 1.95-3.13 2.78-5.18 2.95-5.97.67-11.94 1.32-17.93 1.78.24 3.08 2.21 5.93 5.18 6.93 5.51 1.73 11.37.3 17.01 1.05 2.12.77 1.52 3.41 1.72 5.17-6.91-.44-14.09.95-20.8-1.21C2.57 36.34.16 24.76 3.94 17m3.9 6.11c6.02-.68 12.14-.91 18.04-2.37.3-5.09-5.61-7.59-9.93-6.66-4.59.45-7.65 4.68-8.11 9.03zM58.14 9.23c1.53-.34 3.11-.21 4.67-.26-.07 10.61.04 21.22-.05 31.83-1.85-.02-3.69-.02-5.54-.02-.03-9.28.01-18.56-.03-27.83.16-1.23-.32-2.93.95-3.72zM72.13 24.91C65.44 21.85 67.5 9.76 74.89 9.1c5.04-.21 10.1-.16 15.14-.04 1.95-.11 2.8 2.34 2.03 3.86-.52 1.74-2.76 1.17-4.12 1.37-3.88.1-7.79-.28-11.66.12-2.76.29-3.22 4.84-.8 5.92 5.17 1.55 10.75 1.46 15.81 3.42 6.51 3.7 4.2 15.65-3.34 16.59-6.72 1.03-13.57.11-20.34.54.01-1.74-.79-4.13 1.1-5.2 6.05-.82 12.28.63 18.25-.82 2.59-.67 3.03-4.58 1.39-6.26-5.1-2.28-11.07-1.49-16.22-3.69z"/><path d="M100.1 10.09c1.5-1.66 3.94-.94 5.92-1.12 4.18.24 8.51-.53 12.59.63 3.93 1.23 5.55 5.63 5.4 9.41-.04 7.34.09 14.67-.09 22-2.14-.08-4.33-.49-5.7-2.31-4.59 2.93-10.72 2.89-15.62.79-6.25-2.55-6.99-12.67-1.19-16.04 5.02-2.77 11.19-1.41 16.33-3.79 1.3-1.53.78-4.69-1.39-5.06-5-.97-10.17.28-15.18-.64-1.64-.61-1.23-2.53-1.07-3.87m5.33 17.42c-2.95 1.58-2.84 6.32.06 7.88 3.29 1.5 7.44 1.5 10.56-.41 2.96-2.35 2.38-6.64 2.36-9.99-4.28 1.03-9.03.36-12.98 2.52zM143.03 14.14c-2.78.04-2.81-4.95-.06-5.04 4.7-.23 9.42-.14 14.12-.04 4.27.02 7.79 3.73 7.95 7.94.45 7.98.23 15.99.11 23.98-2.08-.06-4.25-.31-5.47-2.21-5.07 2.73-11.56 3.02-16.7.3-5.39-2.88-5.75-11.5-1.13-15.21 4.85-3.06 10.95-1.93 16.18-3.79 2.63-.97 1.67-5.5-1.04-5.6-4.64-.58-9.32.12-13.96-.33m4.14 13c-3.31 1.31-3.68 6.54-.49 8.2 3.18 1.6 7.27 1.54 10.34-.28 3.14-2.28 2.55-6.67 2.3-10.05-4.01.92-8.32.54-12.15 2.13zM45.86 73.68c3.22-5.78 9.3-10.42 16.15-10.25 9.86-.46 19.71 8.5 18.76 18.62-.04 6.19-.04 12.38 0 18.57-1.5 0-3.01.01-4.51.03-.01-1.79-.02-3.57-.05-5.35-3.62 3.39-8.14 6.11-13.26 6.11-8.55.44-16.67-6.03-18.55-14.28-.19-4.48-.86-9.37 1.46-13.45m13.54-5.26C53.05 70 48.03 76.31 48.53 82.95c.2 7.04 6.27 13.83 13.53 13.73 8.26.65 15.2-7.78 14.2-15.74-.56-7.92-8.99-14.86-16.86-12.52z"/></g><g fill="#fff"><path d="M116.77 52.08c1.73-.01 3.46-.02 5.18-.04-.03 5.39-.04 10.77.01 16.16 4.33-3.21 9.94-4.78 15.25-3.39 6.9 1.52 11.94 8.24 11.98 15.24.03 7.24.22 14.5-.13 21.73-1.6-.04-3.19-.07-4.78-.09-.08-7.23.23-14.47-.13-21.69-.12-5.4-4.77-10.21-10.11-10.71-6.02-.64-12.13 4.57-12.08 10.7-.12 7.25.07 14.51-.08 21.76-1.62 0-3.24.01-4.86.04-.59-16.55-.1-33.15-.25-49.71zM95 58.56c1.44-.05 2.89-.11 4.34-.17.11 1.76.24 3.52.46 5.28 4.36 1.37 7.99 5.03 7.96 9.84-1.59 0-3.18-.01-4.76-.03-.86-1.72-1.81-3.44-3.37-4.64-.14 3.43-.12 6.87-.15 10.31 2.49 1.13 5.2 2.13 7.01 4.29 2.9 3.71 3.17 9.45.16 13.19-1.66 2.38-4.39 3.53-6.94 4.67-.08.68-.22 2.03-.3 2.7h-4.13c-.13-.67-.37-2.02-.5-2.7-5.15-1.64-9.01-6.28-9.08-11.79 1.65 0 3.3.01 4.95.03.59 2.65 2.14 4.86 4.2 6.59.21-4.23.18-8.47.06-12.7-4.16-1.26-7.88-4.74-7.72-9.38-.6-4.99 3.47-8.78 7.76-10.4.02-1.7.03-3.39.05-5.09m-.09 19.25c.12-2.89.12-5.78 0-8.68-3.17 1.93-3.27 6.81 0 8.68m4.74 6.84c-.18 3.75-.17 7.51-.12 11.26 5.19-1.59 4.98-9.35.12-11.26zM1.44 77.6c2.07-9.08 11.27-15.75 20.52-15.15 7.82.09 15.17 5.19 17.97 12.49-2 .04-3.99.07-5.99.07-2.29-3.51-5.65-6.58-9.95-7.17C15.01 65.61 5.42 74 6.26 83.16c.53 7.7 8.04 14.2 15.77 13.34 4.85-.07 9.2-2.89 11.95-6.76 1.88-.01 3.76-.01 5.64 0-4.06 11.81-20.16 15.44-29.92 8.53C3.03 93.96-.61 85.34 1.44 77.6z"/></g></svg>