<?xml version="1.0" encoding="UTF-8"?>
<svg width="100px" height="18px" viewBox="0 0 100 18" version="1.1" xmlns="http://www.w3.org/2000/svg" xmlns:xlink="http://www.w3.org/1999/xlink">
    <title>Souhoola logo footer</title>
    <defs>
        <polygon id="path-1" points="0 0 12 0 12 18 0 18"></polygon>
    </defs>
    <g id="Design" stroke="none" stroke-width="1" fill="none" fill-rule="evenodd">
        <g id="Cart" transform="translate(-1181, -1210)">
            <g id="Souhoola-logo-footer" transform="translate(1181, 1210)">
                <path d="M23.2799113,15.2585122 C23.8569955,15.7327314 23.824101,16.6499916 23.2109441,17.0734747 C22.6642913,17.4511316 21.8435176,17.7694599 20.6504956,17.7145503 C15.5540709,17.4798548 13.86342,13.1473161 14.0085055,10.8140267 C14.3733644,4.9459016 19.2049645,3.95834727 20.8283166,4.03993425 C21.5347541,4.07544954 25.3736391,4.26955618 26.8681147,8.53417388 C27.4620434,10.2292518 27.5849608,12.2127074 28.1518747,13.462453 C28.983931,15.2966461 30.316715,16.05286 31.7570815,16.1241361 C32.9696495,16.1841193 35.6078053,15.5518816 36.1505648,12.4110693 C36.1505648,12.4110693 36.2378067,11.5445452 36.188306,8.72754403 C36.1602583,7.12763727 36.2378067,4.92888045 36.2378067,4.92888045 C36.2378067,4.92888045 36.1699519,4 37.1778429,4 C38.0791843,4 37.9966302,4.98501753 37.9966302,4.98501753 L37.9735087,10.7558438 C37.9735087,10.7558438 38.7220575,17.2953225 32.2610667,17.9733046 C30.4012555,18.1685569 28.1594229,17.3075974 26.8467412,14.8997586 C26.2980226,13.8933828 26.0031638,12.8122939 25.7095763,10.9866932 C25.0247507,6.72829478 22.3111123,5.75677962 20.850882,5.73566684 C20.0104828,5.72355563 15.4754101,6.15604027 15.6784185,11.4015839 C15.7003481,11.9689284 16.0826873,14.5670278 19.0676657,15.7781484 C19.0676657,15.7781484 21.1457407,16.5197962 23.2799113,15.2585122 Z" id="Fill-1" fill="#00FC79"></path>
                <path d="M22.7138462,15.1133648 C22.7138462,15.1133648 23.5148986,14.7432952 23.9130051,15.3404163 C24.4909559,16.20734 22,17 22,17" id="Fill-3" fill="#00FC79"></path>
                <g id="Group-7">
                    <mask id="mask-2" fill="white">
                        <use xlink:href="#path-1"></use>
                    </mask>
                    <g id="Clip-6"></g>
                    <path d="M4.00302089,8.76510092 C3.34697984,8.5212036 2.7613334,8.21255187 2.24624879,7.83955662 C1.73074616,7.46664354 1.31381271,7.01993672 0.995281248,6.49960054 C0.676749781,5.97934652 0.517484047,5.36467269 0.517484047,4.65533251 C0.517484047,3.93703519 0.676749781,3.29014851 0.995281248,2.71442593 C1.31381271,2.13903206 1.73325428,1.65074437 2.25327153,1.2501381 C2.77320518,0.849531827 3.36102532,0.541044452 4.01706638,0.324593801 C4.67277301,0.108307501 5.33817772,0 6.01277888,0 C6.55603806,0 7.08558617,0.055222034 7.6009216,0.165748278 C8.11617341,0.276192346 8.59881965,0.439886232 9.04844228,0.656090357 C9.49823212,0.872623184 9.90588552,1.13961186 10.2713189,1.4573029 C10.6367522,1.77507613 10.9409874,2.14593482 11.1847768,2.56938592 C11.2878606,2.7351342 11.3112698,2.90334774 11.2550042,3.07361568 C11.1988223,3.24413015 11.1191476,3.37996649 11.0160638,3.48112471 C10.8848054,3.6009368 10.7140024,3.67242961 10.5032365,3.69527444 C10.2923871,3.7183658 10.0885604,3.65615884 9.89175643,3.50873573 C9.34833004,2.85494629 8.76753264,2.39673489 8.14902981,2.13426587 C7.53061058,1.87179686 6.82791846,1.74056236 6.04086984,1.74056236 C5.60036005,1.74056236 5.16010108,1.80268714 4.71967489,1.9270189 C4.2791651,2.05135065 3.87870166,2.2333697 3.51811735,2.47266518 C3.15736583,2.71228937 2.8622435,3.01387399 2.63266675,3.3775834 C2.4029228,3.74145716 2.28838524,4.16277169 2.28838524,4.64152701 C2.28838524,5.14813986 2.42399102,5.56953658 2.69587142,5.90555279 C2.96758462,6.24181553 3.31186613,6.52507499 3.72896679,6.75508462 C4.14564942,6.98542295 4.602462,7.17196167 5.09923732,7.31461859 C5.59567823,7.45752204 6.06904441,7.58407253 6.51875065,7.6945166 C7.21207911,7.90652977 7.88902118,8.14582525 8.54966046,8.4128961 C9.21013253,8.68004912 9.79561176,9.00686167 10.3064326,9.39366243 C10.8170026,9.78054537 11.2269133,10.2410577 11.5361647,10.7751172 C11.8453325,11.3093411 11.9999991,11.949325 11.9999991,12.6953155 C11.9999991,13.4965281 11.8383097,14.2217282 11.5150129,14.8710801 C11.1917996,15.5203499 10.7562224,16.0776651 10.2080306,16.5426149 C9.65992237,17.0077291 9.02260863,17.3669188 8.29667458,17.620102 C7.57032251,17.8732852 6.80902394,18 6.01277888,18 C5.34737417,18 4.70562941,17.9124008 4.08737739,17.737531 C3.46895816,17.5627434 2.89969812,17.3255023 2.37968087,17.0261364 C1.85974722,16.7269349 1.40510835,16.372347 1.01643307,15.9623727 C0.62750699,15.5526449 0.329876538,15.1128409 0.124043343,14.6431249 C-0.0164950809,14.348443 -0.037646908,14.1022448 0.0607550701,13.9040371 C0.159073444,13.7061582 0.301785574,13.5565163 0.489309479,13.4551116 C0.704840745,13.335546 0.908667442,13.3099894 1.10070597,13.3790991 C1.29266089,13.4482088 1.49180576,13.6117383 1.69805697,13.8695233 C1.87596641,14.2379989 2.11724773,14.5694955 2.42181732,14.8641774 C2.7262197,15.1590236 3.07058482,15.4098236 3.45482907,15.6169884 C3.83890612,15.8242354 4.25600678,15.9831631 4.70562941,16.0936894 C5.15541925,16.2041334 5.61925457,16.2593555 6.09713538,16.2593555 C6.59365989,16.2593555 7.08792709,16.1858083 7.57985337,16.0383852 C8.07177966,15.8911264 8.51454676,15.6700739 8.90790386,15.3752277 C9.30151177,15.080628 9.61995963,14.7145355 9.86366547,14.2770324 C10.1072041,13.8396936 10.2290988,13.335546 10.2290988,12.7644252 C10.2290988,12.239405 10.1072041,11.7997653 9.86366547,11.4450953 C9.61995963,11.0906717 9.29666273,10.7867862 8.89385838,10.5333565 C8.49097041,10.2801733 8.03666595,10.0636405 7.53061058,9.88408669 C7.02463881,9.7045329 6.51381801,9.53179969 5.9987334,9.36605141 C5.32404864,9.20950681 4.65864393,9.00924476 4.00302089,8.76510092" id="Fill-5" fill="#00FC79" mask="url(#mask-2)"></path>
                </g>
                <path d="M42.6986426,6.74158211 C43.2287718,6.06930275 43.8555287,5.52727948 44.5791538,5.11590703 C45.302378,4.70453458 46.0775646,4.49880889 46.9044731,4.49880889 C47.6863154,4.49880889 48.3894121,4.6426432 49.0141643,4.93015394 C49.6386759,5.21774362 50.173456,5.62682672 50.6183443,6.15771901 C51.0632326,6.68853236 51.404597,7.33010286 51.6427582,8.08195686 C51.8808392,8.83404769 52,9.67447584 52,10.6033992 L52,10.6166616 L52,16.1639137 C52,16.4027955 51.9190893,16.601811 51.7573482,16.7611182 C51.5956071,16.9203464 51.3933706,17 51.1507188,17 C50.9168878,17 50.7194626,16.9203464 50.5576413,16.7611182 C50.3959002,16.601811 50.3149895,16.4027955 50.3149895,16.1639137 L50.3149895,10.656449 L50.3149895,10.6166616 C50.3149895,9.18344981 50.000328,8.08195686 49.3713259,7.31218278 C48.7421634,6.54248764 47.8615283,6.15771901 46.7292602,6.15771901 C46.1809282,6.15771901 45.6663556,6.26381852 45.185703,6.47617544 C44.7048099,6.68853236 44.2825348,6.98275326 43.9185572,7.35868026 C43.5545795,7.73476514 43.2646964,8.17937263 43.0490684,8.69242379 C42.8333601,9.20563282 42.7165248,9.75862918 42.6986426,10.351255 L42.6986426,16.1373888 C42.6986426,16.3762706 42.6154065,16.5776545 42.449255,16.7412245 C42.2828629,16.9050315 42.0828716,16.9867376 41.8493614,16.9867376 C41.6155304,16.9867376 41.4156995,16.9050315 41.2493876,16.7412245 C41.0830758,16.5776545 41,16.3762706 41,16.1373888 L41,0.849348719 C41,0.610387982 41.0830758,0.409319928 41.2493876,0.245434071 C41.4156995,0.0818639857 41.6155304,0 41.8493614,0 C42.0920132,0 42.2941695,0.0818639857 42.4559908,0.245434071 C42.617732,0.409319928 42.6986426,0.610387982 42.6986426,0.849348719 L42.6986426,6.74158211 Z" id="Fill-8" fill="#00FC79"></path>
                <path d="M56.0938791,13.3600436 C56.3438885,13.9370288 56.6825088,14.4413032 57.1100645,14.8726235 C57.5373769,15.3042681 58.0421832,15.647233 58.6243212,15.9014373 C59.2061346,16.1558846 59.8337141,16.2829867 60.5068162,16.2829867 C61.1796749,16.2829867 61.8070921,16.1558846 62.3892301,15.9014373 C62.9710435,15.647233 63.4782031,15.3042681 63.9102218,14.8726235 C64.3420783,14.4413032 64.6810232,13.9370288 64.9265695,13.3600436 C65.1719536,12.7833016 65.2947268,12.1677319 65.2947268,11.5136586 C65.2947268,10.8505877 65.1719536,10.2282089 64.9265695,9.64676539 C64.6810232,9.06548402 64.3420783,8.55893998 63.9102218,8.12737646 C63.4782031,7.69597506 62.9710435,7.35527981 62.3892301,7.10537178 C61.8070921,6.85562588 61.1796749,6.73063133 60.5068162,6.73063133 C59.8428024,6.73063133 59.219767,6.85562588 58.6379536,7.10537178 C58.0558156,7.35527981 57.5488184,7.69597506 57.1168808,8.12737646 C56.6849431,8.55893998 56.3438885,9.06548402 56.0938791,9.64676539 C55.8436263,10.2282089 55.7187434,10.8505877 55.7187434,11.5136586 C55.7187434,12.1677319 55.8436263,12.7833016 56.0938791,13.3600436 M54.5113791,8.97218394 C54.8524337,8.17739049 55.3184525,7.48692128 55.9096788,6.90093843 C56.5007428,6.31503663 57.1919404,5.85169758 57.9831904,5.5110834 C58.7742781,5.17038815 59.6154326,5 60.5068162,5 C61.4070447,5 62.2504713,5.17038815 63.037096,5.5110834 C63.8237207,5.85169758 64.5104553,6.31503663 65.0969751,6.90093843 C65.6835761,7.48692128 66.147404,8.17739049 66.4884586,8.97218394 C66.8294321,9.76730164 67,10.6142977 67,11.5136586 C67,12.4041029 66.8294321,13.2442089 66.4884586,14.0346251 C66.147404,14.8249602 65.6835761,15.5130787 65.0969751,16.0990616 C64.5104553,16.6849634 63.8237207,17.1483024 63.037096,17.4889166 C62.2504713,17.8296118 61.4070447,18 60.5068162,18 C59.6154326,18 58.7742781,17.8296118 57.9831904,17.4889166 C57.1919404,17.1483024 56.5007428,16.6849634 55.9096788,16.0990616 C55.3184525,15.5130787 54.8524337,14.8249602 54.5113791,14.0346251 C54.1704867,13.2442089 54,12.4041029 54,11.5136586 C54,10.6142977 54.1704867,9.76730164 54.5113791,8.97218394" id="Fill-10" fill="#00FC79"></path>
                <path d="M70.0938791,13.3600436 C70.3438885,13.9370288 70.6825088,14.4413032 71.1100645,14.8726235 C71.5373769,15.3042681 72.0421832,15.647233 72.6243212,15.9014373 C73.2061346,16.1558846 73.8337141,16.2829867 74.5068162,16.2829867 C75.1796749,16.2829867 75.8070921,16.1558846 76.3892301,15.9014373 C76.9710435,15.647233 77.4782031,15.3042681 77.9102218,14.8726235 C78.3420783,14.4413032 78.6810232,13.9370288 78.9265695,13.3600436 C79.1719536,12.7833016 79.2947268,12.1677319 79.2947268,11.5136586 C79.2947268,10.8505877 79.1719536,10.2282089 78.9265695,9.64676539 C78.6810232,9.06548402 78.3420783,8.55893998 77.9102218,8.12737646 C77.4782031,7.69597506 76.9710435,7.35527981 76.3892301,7.10537178 C75.8070921,6.85562588 75.1796749,6.73063133 74.5068162,6.73063133 C73.8428024,6.73063133 73.219767,6.85562588 72.6379536,7.10537178 C72.0558156,7.35527981 71.5488184,7.69597506 71.1168808,8.12737646 C70.6849431,8.55893998 70.3438885,9.06548402 70.0938791,9.64676539 C69.8436263,10.2282089 69.7187434,10.8505877 69.7187434,11.5136586 C69.7187434,12.1677319 69.8436263,12.7833016 70.0938791,13.3600436 M68.5113791,8.97218394 C68.8524337,8.17739049 69.3184525,7.48692128 69.9096788,6.90093843 C70.5007428,6.31503663 71.1919404,5.85169758 71.9831904,5.5110834 C72.7742781,5.17038815 73.6154326,5 74.5068162,5 C75.4070447,5 76.2504713,5.17038815 77.0371771,5.5110834 C77.8237207,5.85169758 78.5104553,6.31503663 79.0969751,6.90093843 C79.6835761,7.48692128 80.147404,8.17739049 80.4884586,8.97218394 C80.8295133,9.76730164 81,10.6142977 81,11.5136586 C81,12.4041029 80.8295133,13.2442089 80.4884586,14.0346251 C80.147404,14.8249602 79.6835761,15.5130787 79.0969751,16.0990616 C78.5104553,16.6849634 77.8237207,17.1483024 77.0371771,17.4889166 C76.2504713,17.8296118 75.4070447,18 74.5068162,18 C73.6154326,18 72.7742781,17.8296118 71.9831904,17.4889166 C71.1919404,17.1483024 70.5007428,16.6849634 69.9096788,16.0990616 C69.3184525,15.5130787 68.8524337,14.8249602 68.5113791,14.0346251 C68.1704867,13.2442089 68,12.4041029 68,11.5136586 C68,10.6142977 68.1704867,9.76730164 68.5113791,8.97218394" id="Fill-12" fill="#00FC79"></path>
                <path d="M85,16.1765337 C85,16.4069115 84.9019969,16.6015002 84.7063683,16.7608527 C84.5104565,16.9202842 84.2749847,17 84.0000472,17 C83.7247321,17 83.4894491,16.9202842 83.2936317,16.7608527 C83.0978143,16.6015002 83,16.4069115 83,16.1765337 L83,0.823387258 C83,0.584318956 83.0978143,0.387360173 83.2936317,0.2323529 C83.4894491,0.0775826413 83.7247321,0 84.0000472,0 C84.2749847,0 84.5104565,0.0775826413 84.7063683,0.2323529 C84.9019969,0.387360173 85,0.584318956 85,0.823387258 L85,16.1765337 Z" id="Fill-14" fill="#00FC79"></path>
                <path d="M88.7187434,11.5136182 C88.7187434,12.1676955 88.8437075,12.7832691 89.0938791,13.3600147 C89.3438885,13.9370846 89.6825088,14.441281 90.1100645,14.8726851 C90.537458,15.3042513 91.0421832,15.6472184 91.6243212,15.9015052 C92.2061346,16.1559542 92.8337141,16.282976 93.5068162,16.282976 C94.1796749,16.282976 94.8070921,16.1559542 95.3893113,15.9015052 C95.9711247,15.6472184 96.4758498,15.3042513 96.9034056,14.8726851 C97.330718,14.441281 97.6673907,13.9370846 97.9129371,13.3600147 C98.1583212,12.7832691 98.2810943,12.1676955 98.2810943,11.5136182 C98.2810943,10.8506242 98.1583212,10.2281604 97.9129371,9.64671331 C97.6673907,9.06550937 97.330718,8.55896218 96.9034056,8.1273149 C96.4758498,7.69599187 95.9711247,7.3552945 95.3893113,7.10530385 C94.8070921,6.85563745 94.1796749,6.73064212 93.5068162,6.73064212 C92.8428024,6.73064212 92.2198482,6.85563745 91.6379536,7.10530385 C91.0558156,7.3552945 90.5488184,7.69599187 90.1168808,8.1273149 C89.6849431,8.55896218 89.3438885,9.06550937 89.0938791,9.64671331 C88.8437075,10.2281604 88.7187434,10.8506242 88.7187434,11.5136182 M87,11.5136182 C87,10.6142517 87.1704867,9.7672503 87.5114602,8.97220871 C87.8525149,8.17732924 88.3184525,7.48685572 88.9097599,6.90086922 C89.5007428,6.31496377 90.1919404,5.85162183 90.9831904,5.51100552 C91.7742781,5.17030815 92.6154326,5 93.5068162,5 C94.3979564,5 95.2345667,5.16820058 96.0167285,5.50419644 C96.7987279,5.84043548 97.4831904,6.29688728 98.0697102,6.87363288 C98.6563112,7.45070273 99.1201391,8.12966566 99.4611937,8.9108459 C99.8021672,9.69226932 99.98158,10.5280033 100,11.4182099 L100,11.4454463 L100,11.5136182 L100,16.9507526 C100,17.1960418 99.9157709,17.4050968 99.7476374,17.5775936 C99.5792605,17.7502525 99.3725017,17.8365009 99.1269553,17.8365009 C98.8814089,17.8365009 98.6788697,17.7502525 98.5198245,17.5775936 C98.3606981,17.4050968 98.2810943,17.1960418 98.2810943,16.9507526 L98.2674619,15.7788607 C97.6673907,16.4420978 96.9601263,16.977989 96.1463179,17.3867772 C95.3323471,17.7955654 94.4525673,18 93.5068162,18 C92.6154326,18 91.7742781,17.8296918 90.9831904,17.4889945 C90.1919404,17.1483782 89.5007428,16.6850362 88.9097599,16.0990497 C88.3184525,15.5130632 87.8525149,14.8249405 87.5114602,14.0346004 C87.1704867,13.2441792 87,12.404068 87,11.5136182" id="Fill-16" fill="#00FC79"></path>
            </g>
        </g>
    </g>
</svg>