<svg viewBox="0 0 88 27" xmlns="http://www.w3.org/2000/svg"><g fill="#fff"><path d="M56.91 0h.76c2.08.3 4.12.83 6.14 1.41-.29 1.78-.56 3.56-.82 5.34-3.48-.96-8.22-2.42-10.66 1.23 2.76 2.98 7.4 3.46 9.67 6.97 1.64 2.96.49 6.96-2.14 8.98-2.5 1.91-5.7 2.49-8.72 3.07h-.86c-2.62-.32-5.18-.95-7.71-1.67.35-1.9.7-3.8 1.02-5.71 2.37.95 4.84 1.91 7.44 1.74 1.96.06 4.99-.81 4.33-3.36-2.58-2.36-6.35-3.04-8.62-5.79-1.96-2.29-1.43-5.86.49-8C49.63 1.4 53.47.67 56.91 0zM.01.79c4.1-.07 8.21-.1 12.32 0 1.49.11 2.63 1.22 2.81 2.7.97 4.94 2.38 9.81 2.87 14.83 2.74-5.75 4.66-11.85 7.38-17.61 2.44.08 4.88.07 7.32.06-3.81 8.5-7.4 17.1-11.29 25.56-2.47-.03-4.94-.03-7.42-.08-1.76-6.77-3.83-13.47-5.66-20.22C7.65 2.09 2.43 2.88.01.79zM31.13 26.3c1.39-8.54 2.95-17.05 4.44-25.57 2.35.01 4.71.01 7.06 0-1.46 8.52-3.03 17.03-4.44 25.56-2.35.01-4.71.01-7.06.01zM72.86 2.81c1.76-3.27 6.17-1.69 9.16-2 1.81 8.54 3.6 17.11 5.82 25.56-2.28-.04-4.57-.04-6.85-.09-.23-1.28-.47-2.55-.71-3.82-3.03 0-6.06-.01-9.1.01-.53 1.3-1.07 2.6-1.62 3.9-2.45-.05-4.9-.04-7.35-.04 3.62-7.81 7.02-15.72 10.65-23.52m.34 14.45h5.88c-.7-3.15-1.41-6.3-2.05-9.46-1.37 3.11-2.55 6.31-3.83 9.46z"/></g></svg>