<?xml version="1.0" encoding="UTF-8"?>
<svg width="149px" height="147px" viewBox="0 0 149 147" version="1.1" xmlns="http://www.w3.org/2000/svg" xmlns:xlink="http://www.w3.org/1999/xlink">
    <title>Cart illustartion</title>
    <defs>
        <linearGradient x1="49.6146503%" y1="-16.2812312%" x2="50.6390528%" y2="159.311166%" id="linearGradient-1">
            <stop stop-color="#FFFFFF" stop-opacity="0" offset="0%"></stop>
            <stop stop-color="#8EE2F4" offset="100%"></stop>
        </linearGradient>
        <linearGradient x1="0.0472326102%" y1="38.5548055%" x2="30.3104895%" y2="47.2726613%" id="linearGradient-2">
            <stop stop-color="#FFFFFF" offset="0%"></stop>
            <stop stop-color="#8EE2F4" offset="100%"></stop>
        </linearGradient>
        <linearGradient x1="149.787265%" y1="11.5151248%" x2="3.60781556%" y2="14.1274364%" id="linearGradient-3">
            <stop stop-color="#FFFFFF" offset="0%"></stop>
            <stop stop-color="#8EE2F4" offset="100%"></stop>
        </linearGradient>
        <linearGradient x1="-0.113320774%" y1="49.3123594%" x2="100.381695%" y2="49.9648349%" id="linearGradient-4">
            <stop stop-color="#90E3F5" offset="0%"></stop>
            <stop stop-color="#41ACC4" offset="100%"></stop>
        </linearGradient>
        <linearGradient x1="49.9999417%" y1="0%" x2="49.9999417%" y2="100%" id="linearGradient-5">
            <stop stop-color="#CCF6FF" offset="0%"></stop>
            <stop stop-color="#B9ECF8" offset="100%"></stop>
        </linearGradient>
        <linearGradient x1="50%" y1="0%" x2="50%" y2="100%" id="linearGradient-6">
            <stop stop-color="#92DDEC" offset="0%"></stop>
            <stop stop-color="#6CCFE3" offset="100%"></stop>
        </linearGradient>
        <linearGradient x1="-3.00176344%" y1="74.9877865%" x2="141.472144%" y2="77.2724304%" id="linearGradient-7">
            <stop stop-color="#77D3E6" offset="39.2237%"></stop>
            <stop stop-color="#E9FCFF" offset="100%"></stop>
        </linearGradient>
        <linearGradient x1="27.5811936%" y1="55.2136645%" x2="81.8495795%" y2="69.3552053%" id="linearGradient-8">
            <stop stop-color="#E9FBFF" offset="0%"></stop>
            <stop stop-color="#BCF3FF" offset="100%"></stop>
        </linearGradient>
        <linearGradient x1="-0.11262956%" y1="42.4524826%" x2="99.9934317%" y2="43.0897589%" id="linearGradient-9">
            <stop stop-color="#AFF1FF" offset="0%"></stop>
            <stop stop-color="#65C8DE" offset="100%"></stop>
        </linearGradient>
        <linearGradient x1="-3.00238095%" y1="74.9857143%" x2="141.471429%" y2="77.2714286%" id="linearGradient-10">
            <stop stop-color="#FFFFFF" offset="0%"></stop>
            <stop stop-color="#BCF3FF" offset="100%"></stop>
        </linearGradient>
        <path d="M88.9697092,7.57405956e-16 L9.27990053,7.57405956e-16 C3.30627718,7.57405956e-16 -1.10616136,5.06654709 0.244714985,10.3671391 L6.73711027,41.543805 C7.7140127,45.3720718 11.4580676,48.0876569 15.7722958,48.0876569 L86.0377847,52.6346575 L98.0238729,10.3809716 C99.3744726,5.06654709 94.957497,7.57405956e-16 88.9697092,7.57405956e-16 Z" id="path-11"></path>
        <linearGradient x1="47.5405572%" y1="74.9877482%" x2="54.2461543%" y2="75.0938404%" id="linearGradient-13">
            <stop stop-color="#62C9E0" offset="0%"></stop>
            <stop stop-color="#62C9E0" offset="100%"></stop>
        </linearGradient>
        <linearGradient x1="-0.109534144%" y1="27.1216614%" x2="100.540029%" y2="27.7751622%" id="linearGradient-14">
            <stop stop-color="#90E3F5" offset="0%"></stop>
            <stop stop-color="#65C8DE" offset="100%"></stop>
        </linearGradient>
        <linearGradient x1="41.3757529%" y1="25.1951749%" x2="100.650783%" y2="71.8416881%" id="linearGradient-15">
            <stop stop-color="#90E3F5" offset="0%"></stop>
            <stop stop-color="#65C8DE" offset="100%"></stop>
        </linearGradient>
        <linearGradient x1="-24.3694646%" y1="10.0487044%" x2="125.008067%" y2="11.0163645%" id="linearGradient-16">
            <stop stop-color="#90E3F5" offset="0%"></stop>
            <stop stop-color="#65C8DE" offset="100%"></stop>
        </linearGradient>
        <linearGradient x1="-24.3722409%" y1="10.0476779%" x2="125.007946%" y2="11.0153629%" id="linearGradient-17">
            <stop stop-color="#90E3F5" offset="0%"></stop>
            <stop stop-color="#65C8DE" offset="100%"></stop>
        </linearGradient>
        <linearGradient x1="-0.113397264%" y1="23.0781332%" x2="100.543389%" y2="23.7316466%" id="linearGradient-18">
            <stop stop-color="#90E3F5" offset="0%"></stop>
            <stop stop-color="#65C8DE" offset="100%"></stop>
        </linearGradient>
        <linearGradient x1="-33.0580582%" y1="67.100981%" x2="69.4746724%" y2="-32.1460946%" id="linearGradient-19">
            <stop stop-color="#90E3F5" offset="0%"></stop>
            <stop stop-color="#65C8DE" offset="100%"></stop>
        </linearGradient>
        <linearGradient x1="32.9813952%" y1="-33.0645797%" x2="132.071672%" y2="69.5319875%" id="linearGradient-20">
            <stop stop-color="#90E3F5" offset="0%"></stop>
            <stop stop-color="#65C8DE" offset="100%"></stop>
        </linearGradient>
        <linearGradient x1="-0.114229765%" y1="23.0783039%" x2="100.546671%" y2="23.731856%" id="linearGradient-21">
            <stop stop-color="#90E3F5" offset="0%"></stop>
            <stop stop-color="#65C8DE" offset="100%"></stop>
        </linearGradient>
        <linearGradient x1="104.497354%" y1="50.0181966%" x2="-1.60507937%" y2="48.7326265%" id="linearGradient-22">
            <stop stop-color="#63C8DE" offset="0%"></stop>
            <stop stop-color="#52D2EE" offset="100%"></stop>
        </linearGradient>
        <linearGradient x1="-3.0047619%" y1="74.9857143%" x2="141.471429%" y2="77.2714286%" id="linearGradient-23">
            <stop stop-color="#FFFFFF" offset="0%"></stop>
            <stop stop-color="#BCF3FF" offset="100%"></stop>
        </linearGradient>
    </defs>
    <g id="Design" stroke="none" stroke-width="1" fill="none" fill-rule="evenodd">
        <g id="Empty-cart" transform="translate(-646.000000, -276.000000)">
            <g id="Group-5" transform="translate(580.000000, 276.000000)">
                <g id="Cart-illustartion" transform="translate(66.000000, 0.000000)">
                    <path d="M74.6112488,143.526532 C109.661552,143.526532 138.075049,115.113034 138.075049,80.0627314 C138.075049,45.0126496 109.661552,16.5989312 74.6112488,16.5989312 C39.5611671,16.5989312 11.1474486,45.0126496 11.1474486,80.0627314 C11.1474486,115.113034 39.5611671,143.526532 74.6112488,143.526532 Z" id="Path" fill="url(#linearGradient-1)" fill-rule="nonzero"></path>
                    <path d="M73.3502833,110.441542 C73.3502833,107.820017 75.4754998,105.694801 78.0970244,105.694801 L105.637418,105.694801 C109.400395,105.694801 112.997384,106.808589 115.766639,108.844171 C118.53534,110.8792 120.732486,114.079474 120.732486,118.051045 C120.732486,122.022616 118.535894,125.22289 115.768299,127.259026 C112.999044,129.296821 109.401502,130.412269 105.637418,130.412269 L40.198898,130.412269 C37.5774288,130.412269 35.4522676,128.287053 35.4522676,125.665528 C35.4522676,123.044004 37.5774288,120.918787 40.198898,120.918787 L105.637418,120.918787 C107.589452,120.918787 109.16635,120.330632 110.142368,119.612451 C111.120045,118.893164 111.239557,118.28675 111.239557,118.051045 C111.239557,117.816447 111.121151,117.211693 110.144027,116.493512 C109.168564,115.776438 107.591112,115.188283 105.637418,115.188283 L77.8198222,114.255976 C75.1982977,114.255976 73.3502833,113.063066 73.3502833,110.441542 Z" id="Path" fill="url(#linearGradient-2)"></path>
                    <path d="M116.550662,53.7550854 C117.175335,51.420501 119.290592,49.7967936 121.707396,49.7967936 L143.297626,49.7967936 C146.245596,49.7967936 148.635289,52.1866524 148.635289,55.1346779 C148.635289,58.08298 146.245596,60.4726728 143.297626,60.4726728 L125.805119,60.4726728 L119.576647,83.7510139 C118.814756,86.5988372 115.888364,88.289715 113.040541,87.5278241 C110.192718,86.7659331 108.50184,83.8395415 109.263731,80.9917183 L116.550662,53.7550854 Z" id="Path" fill="url(#linearGradient-3)"></path>
                    <polygon id="Path" fill="url(#linearGradient-4)" fill-rule="nonzero" points="111.938372 33.7787143 47.1775313 33.7787143 42.0686569 44.9453133 106.824795 44.9453133"></polygon>
                    <polygon id="Path" fill="url(#linearGradient-5)" fill-rule="nonzero" points="79.3126194 32.091267 36.9549689 32.091267 42.0684909 44.945258 84.4212171 44.945258"></polygon>
                    <polygon id="Path" fill="url(#linearGradient-6)" fill-rule="nonzero" points="112.803176 32.091267 89.5347945 32.091267 84.4212171 44.945258 107.689599 44.945258"></polygon>
                    <polygon id="Path" fill="url(#linearGradient-7)" fill-rule="nonzero" points="107.694025 44.9451473 65.3363194 44.9451473 65.3363194 87.3026319 107.694025 87.3026319"></polygon>
                    <polygon id="Path" fill="url(#linearGradient-8)" fill-rule="nonzero" points="84.4261968 44.9451473 42.0686569 44.9451473 42.0686569 87.3026319 84.4261968 87.3026319"></polygon>
                    <path d="M56.0071668,146.825292 C62.3933289,146.825292 67.5710888,141.648086 67.5710888,135.26137 C67.5710888,128.874655 62.3933289,123.697448 56.0071668,123.697448 C49.6204513,123.697448 44.443134,128.874655 44.443134,135.26137 C44.443134,141.648086 49.6204513,146.825292 56.0071668,146.825292 Z" id="Path" fill="#6FCFE4" fill-rule="nonzero"></path>
                    <path d="M113.396311,64.1111585 L33.7065027,64.1111585 C27.7328794,64.1111585 23.3204408,69.1777056 24.6713172,74.4782977 L31.1637124,105.654963 C32.1406149,109.48323 35.8846698,112.198815 40.198898,112.198815 L110.464387,116.745816 L122.450475,74.4921301 C125.403425,65.8424271 119.384099,64.1111585 113.396311,64.1111585 Z" id="Path" fill="url(#linearGradient-9)" fill-rule="nonzero"></path>
                    <path d="M55.687914,141.090915 C58.8964874,141.090915 61.4975399,138.489863 61.4975399,135.281289 C61.4975399,132.072716 58.8964874,129.471663 55.687914,129.471663 C52.4793406,129.471663 49.8782881,132.072716 49.8782881,135.281289 C49.8782881,138.489863 52.4793406,141.090915 55.687914,141.090915 Z" id="Path" fill="url(#linearGradient-10)" fill-rule="nonzero"></path>
                    <g id="Clipped" transform="translate(24.426602, 64.111159)">
                        <mask id="mask-12" fill="white">
                            <use xlink:href="#path-11"></use>
                        </mask>
                        <g id="Path"></g>
                        <g id="Group" mask="url(#mask-12)" fill-rule="nonzero">
                            <g transform="translate(-3.866467, 1.618729)" id="Rectangle">
                                <rect fill="url(#linearGradient-13)" transform="translate(62.257678, 37.761438) rotate(0.704738) translate(-62.257678, -37.761438) " x="58.9379472" y="22.3503599" width="6.63946228" height="30.8221572" rx="3.31973114"></rect>
                                <path d="M58.4740074,-54.7469906 C60.3074439,-54.7469906 61.7937379,-53.2606966 61.7937379,-51.4272601 L61.7937379,58.8399306 C61.7937379,60.6733671 60.3074439,62.1596611 58.4740074,62.1596611 C56.6405708,62.1596611 55.1542769,60.6733671 55.1542769,58.8399306 L55.1542769,-51.4272601 C55.1542769,-53.2606966 56.6405708,-54.7469906 58.4740074,-54.7469906 Z" fill="#61C2D8" transform="translate(58.474007, 3.706335) rotate(89.620977) translate(-58.474007, -3.706335) "></path>
                                <path d="M81.0222167,22.4305881 C82.8556536,22.4305881 84.3419479,23.9168823 84.3419479,25.7503192 L84.3419479,49.9330141 C84.3419479,51.766451 82.8556536,53.2527453 81.0222167,53.2527453 C79.1887798,53.2527453 77.7024856,51.766451 77.7024856,49.9330141 L77.7024856,25.7503192 C77.7024856,23.9168823 79.1887798,22.4305881 81.0222167,22.4305881 Z" fill="url(#linearGradient-13)" transform="translate(81.022217, 37.841667) rotate(0.704738) translate(-81.022217, -37.841667) "></path>
                                <path d="M43.4931399,22.270685 C45.3265768,22.270685 46.8128711,23.7569793 46.8128711,25.5904162 L46.8128711,49.7731111 C46.8128711,51.606548 45.3265768,53.0928422 43.4931399,53.0928422 C41.659703,53.0928422 40.1734088,51.606548 40.1734088,49.7731111 L40.1734088,25.5904162 C40.1734088,23.7569793 41.659703,22.270685 43.4931399,22.270685 Z" fill="url(#linearGradient-13)" transform="translate(43.493140, 37.681764) rotate(0.704738) translate(-43.493140, -37.681764) "></path>
                                <path d="M24.5278098,22.270685 C26.3612467,22.270685 27.8475409,23.7569793 27.8475409,25.5904162 L27.8475409,49.7731111 C27.8475409,51.606548 26.3612467,53.0928422 24.5278098,53.0928422 C22.6943729,53.0928422 21.2080786,51.606548 21.2080786,49.7731111 L21.2080786,25.5904162 C21.2080786,23.7569793 22.6943729,22.270685 24.5278098,22.270685 Z" fill="url(#linearGradient-13)" transform="translate(24.527810, 37.681764) rotate(0.704738) translate(-24.527810, -37.681764) "></path>
                            </g>
                        </g>
                    </g>
                    <path d="M97.6577582,1.70650851 C96.8493902,0.289390803 95.3488468,-0.37722338 94.306434,0.217580506 C93.2634678,0.812384946 93.0736867,2.44336826 93.8820546,3.86048541 C93.9052931,3.90057736 93.9285316,3.94007175 93.9523234,3.97894645 C93.4222642,4.08770265 92.9242963,4.60592681 92.7289822,5.31982471 C92.477785,6.23865301 92.8230428,7.13366738 93.5002792,7.31891145 C94.1775156,7.50415552 94.9305538,6.90947115 95.1817509,5.99066498 C95.2503598,5.73891452 95.2747049,5.48902868 95.2592126,5.25500035 C95.9270429,5.62039815 96.6518629,5.68148222 97.2339321,5.3494206 C97.7462858,5.05709683 98.0528127,4.5144999 98.1358074,3.8700132 C98.2752384,3.94254499 98.4279486,4.00259993 98.5900648,4.04700207 C99.5090923,4.29830435 100.403775,3.95297465 100.589129,3.27568847 C100.774484,2.59840228 100.179689,1.84563521 99.2606616,1.59433293 C98.6691864,1.43254868 98.0876705,1.51803871 97.6992555,1.7801801 C97.685423,1.75556388 97.6721439,1.731003 97.6577582,1.70650851 Z" id="Path" fill="url(#linearGradient-14)"></path>
                    <path d="M49.8082406,7.2580487 C49.3338984,7.74152024 48.7366136,7.99487526 48.1335744,7.90147861 C47.4350361,7.7933089 46.8845602,7.24393961 46.6009951,6.48121872 C46.4725194,6.65489887 46.3105138,6.81745774 46.1184088,6.95805069 C45.3497123,7.52058847 44.3904048,7.51721335 43.9757081,6.95058117 C43.5610668,6.38394899 43.8480624,5.4685622 44.6168142,4.90602442 C45.2271016,4.45943018 45.9575099,4.36948057 46.4401514,4.63490301 C46.6946131,3.03027327 47.8552103,1.87977368 49.0378842,2.06293736 C50.2041251,2.24356692 50.9576059,3.65389511 50.7453609,5.23350473 C51.2027721,5.28234432 51.6942111,5.57502774 52.0472151,6.05717136 C52.6099188,6.8259232 52.6065991,7.78523076 52.0400222,8.19987206 C51.473224,8.61456869 50.5578483,8.32751784 49.9953105,7.55882134 C49.9238245,7.46116429 49.8614678,7.36040878 49.8082406,7.2580487 Z" id="Path" fill="url(#linearGradient-15)"></path>
                    <path d="M6.70336147,69.9705812 C6.98974836,68.784311 8.67708505,68.784311 8.96347194,69.9705812 L9.92726122,73.9631775 C10.029566,74.3870035 10.3605486,74.7178756 10.7844854,74.8202356 L14.7770816,75.7840802 C15.9634072,76.0706885 15.9634072,77.7576932 14.7770816,78.0443014 L10.7844854,79.008146 C10.3605486,79.1105061 10.029566,79.4413781 9.92726122,79.8652041 L8.96347194,83.8578004 C8.67708505,85.0440707 6.98974836,85.0440707 6.70336147,83.8578004 L5.7395722,79.8652041 C5.63721212,79.4413781 5.30622943,79.1105061 4.88229273,79.008146 L0.889713085,78.0443014 C-0.296568262,77.7576932 -0.296573795,76.0706885 0.889713085,75.7840802 L4.88229273,74.8202356 C5.30622943,74.7178756 5.63721212,74.3870035 5.7395722,73.9631775 L6.70336147,69.9705812 Z" id="Path" fill="url(#linearGradient-16)" fill-rule="nonzero"></path>
                    <path d="M129.535452,109.808016 C129.82206,108.621746 131.509065,108.621746 131.795673,109.808016 L132.759518,113.800612 C132.861878,114.224438 133.19275,114.55531 133.616576,114.65767 L137.609172,115.621515 C138.795443,115.908123 138.795443,117.595128 137.609172,117.881736 L133.616576,118.845581 C133.19275,118.947941 132.861878,119.278813 132.759518,119.702639 L131.795673,123.695235 C131.509065,124.881505 129.82206,124.881505 129.535452,123.695235 L128.571608,119.702639 C128.469248,119.278813 128.138375,118.947941 127.714549,118.845581 L123.721953,117.881736 C122.535683,117.595128 122.535683,115.908123 123.721953,115.621515 L127.714549,114.65767 C128.138375,114.55531 128.469248,114.224438 128.571608,113.800612 L129.535452,109.808016 Z" id="Path" fill="url(#linearGradient-17)" fill-rule="nonzero"></path>
                    <path d="M23.6674691,41.4901351 C24.999478,41.4901351 26.0792385,40.4103193 26.0792385,39.0783658 C26.0792385,37.7463569 24.999478,36.6665964 23.6674691,36.6665964 C22.3355156,36.6665964 21.2557551,37.7463569 21.2557551,39.0783658 C21.2557551,40.4103193 22.3355156,41.4901351 23.6674691,41.4901351 Z M23.6674691,43.2989207 C25.998457,43.2989207 27.8880794,41.4092983 27.8880794,39.0783658 C27.8880794,36.7473779 25.998457,34.8578109 23.6674691,34.8578109 C21.3365366,34.8578109 19.4469142,36.7473779 19.4469142,39.0783658 C19.4469142,41.4092983 21.3365366,43.2989207 23.6674691,43.2989207 Z" id="Shape" fill="url(#linearGradient-18)"></path>
                    <path d="M13.921794,103.495996 C13.7375459,102.773389 14.4046569,102.122158 15.122616,102.324111 L19.968674,103.685777 C20.6866331,103.887731 20.9169156,104.790712 20.3832046,105.311919 L16.7808492,108.827573 C16.2471383,109.348779 15.3497447,109.096475 15.1654966,108.373868 L13.921794,103.495996 Z" id="Path" fill="url(#linearGradient-19)" fill-rule="nonzero"></path>
                    <path d="M139.35372,86.8776992 C140.076327,86.6945577 140.726452,87.362388 140.523945,88.0800152 L139.156193,92.9246899 C138.953132,93.642317 138.049597,93.8713823 137.529497,93.3368967 L134.01827,89.7299489 C133.49817,89.1954633 133.751581,88.2985678 134.474188,88.1154262 L139.35372,86.8776992 Z" id="Path" fill="url(#linearGradient-20)" fill-rule="nonzero"></path>
                    <path d="M123.537705,36.3128178 C124.607783,36.3128178 125.475354,35.4453577 125.475354,34.3752799 C125.475354,33.3052575 124.607783,32.4377974 123.537705,32.4377974 C122.467627,32.4377974 121.600056,33.3052575 121.600056,34.3752799 C121.600056,35.4453577 122.467627,36.3128178 123.537705,36.3128178 Z M123.537705,37.7659436 C125.410064,37.7659436 126.928313,36.2478607 126.928313,34.3752799 C126.928313,32.5026992 125.410064,30.9846716 123.537705,30.9846716 C121.665346,30.9846716 120.147097,32.5026992 120.147097,34.3752799 C120.147097,36.2478607 121.665346,37.7659436 123.537705,37.7659436 Z" id="Shape" fill="url(#linearGradient-21)"></path>
                    <rect id="Rectangle" fill="url(#linearGradient-22)" fill-rule="nonzero" x="21.1068074" y="63.0759385" width="104.573266" height="7.19287018" rx="3.59643509"></rect>
                    <path d="M47.7317696,8.91124692 C46.7794336,12.7208676 49.864345,20.7255362 54.6261357,21.3604453 C63.4374016,22.5352623 61.8190059,12.2310332 56.5626776,14.1675751 C50.3070938,16.4723367 56.567104,26.3310506 65.1387921,28.5533155" id="Path" stroke="#5EC0D6" stroke-linecap="round" stroke-linejoin="round" stroke-dasharray="4"></path>
                    <path d="M97.8132348,7.94950485 C103.049644,18.1414699 89.1757043,29.0225673 85.3347117,31.0385075" id="Path" stroke="#5EC0D6" stroke-linecap="round" stroke-linejoin="round" stroke-dasharray="4"></path>
                    <path d="M92.7975911,146.825292 C99.1843065,146.825292 104.361513,141.648086 104.361513,135.26137 C104.361513,128.874655 99.1843065,123.697448 92.7975911,123.697448 C86.4108757,123.697448 81.2336691,128.874655 81.2336691,135.26137 C81.2336691,141.648086 86.4108757,146.825292 92.7975911,146.825292 Z" id="Path" fill="#6FCFE4" fill-rule="nonzero"></path>
                    <path d="M92.7588603,141.090915 C95.9674337,141.090915 98.5684862,138.489863 98.5684862,135.281289 C98.5684862,132.072716 95.9674337,129.471663 92.7588603,129.471663 C89.5502869,129.471663 86.9492344,132.072716 86.9492344,135.281289 C86.9492344,138.489863 89.5502869,141.090915 92.7588603,141.090915 Z" id="Path" fill="url(#linearGradient-23)" fill-rule="nonzero"></path>
                </g>
            </g>
        </g>
    </g>
</svg>