<?xml version="1.0" encoding="UTF-8"?>
<svg width="67px" height="29px" viewBox="0 0 67 29" version="1.1" xmlns="http://www.w3.org/2000/svg" xmlns:xlink="http://www.w3.org/1999/xlink">
    <title>CIB logo footer</title>
    <defs>
        <polygon id="path-1" points="0 0 29 0 29 29 0 29"></polygon>
        <polygon id="path-3" points="0 0 36 0 36 29 0 29"></polygon>
    </defs>
    <g id="Design" stroke="none" stroke-width="1" fill="none" fill-rule="evenodd">
        <g id="Cart" transform="translate(-1084, -1204)">
            <g id="CIB-logo-footer" transform="translate(1084, 1204)">
                <g id="Group-3">
                    <mask id="mask-2" fill="white">
                        <use xlink:href="#path-1"></use>
                    </mask>
                    <g id="Clip-2"></g>
                    <path d="M3.62500552,0 L29,0 L29,2.41665011 L9.66675497,2.41665011 C8.33204227,2.41665011 7.25009934,3.49859057 7.25009934,4.83330022 L7.25009934,24.1667219 C7.25009934,25.5014315 8.33204227,26.583372 9.66675497,26.583372 L29,26.583372 L29,29.0000221 L3.62500552,29.0000221 C1.62293647,29.0000221 -8.83038505e-05,27.377001 -8.83038505e-05,25.3749365 L-8.83038505e-05,3.62508554 C-8.83038505e-05,1.62302107 1.62293647,0 3.62500552,0" id="Fill-1" fill="#FFFFFF" mask="url(#mask-2)"></path>
                </g>
                <g id="Group-6" transform="translate(31, 0)">
                    <mask id="mask-4" fill="white">
                        <use xlink:href="#path-3"></use>
                    </mask>
                    <g id="Clip-5"></g>
                    <path d="M30.8091488,13.7419384 C33.8339609,14.8227694 36.0000219,17.7294894 36.0000219,21.1459396 C36.0000219,25.4668351 32.534982,28.972913 28.2502151,29.0000662 L28.2000099,29.0000662 L24.0000877,29.0000662 L20.1220054,29.0000662 L19.200114,29.0000662 L11.9999342,29.0000662 L0,29.0000662 L0,26.5834289 C1.32550657,26.5834289 2.39998685,25.5014941 2.39998685,24.1667915 L2.39998685,4.83347178 C2.39998685,3.49876916 1.32550657,2.41683441 0,2.41683441 L0,-1.65201186e-13 L11.9999342,-1.65201186e-13 L21.5998816,-1.65201186e-13 L22.4645521,-1.65201186e-13 L24.0000877,-1.65201186e-13 L27.5403259,-1.65201186e-13 C27.588558,-1.65201186e-13 27.6370094,-0.000465233714 27.68568,0.000638556077 C29.3711736,0.0205067723 30.9174518,0.623396756 32.1346553,1.61835287 C33.6655869,2.81839314 34.7911494,4.6857847 34.7999189,7.22030682 L34.7999189,7.23509761 L34.7999189,7.25010915 C34.7994804,7.67860034 34.7668141,8.06558905 34.7058662,8.424983 C34.328121,10.7603814 32.842133,12.7211536 30.8091488,13.7419384 M21.5998816,4.79881278 L21.5998816,4.83347178 L21.5998816,8.45831745 L21.5998816,9.6899261 L21.5998816,11.4367838 L21.5998816,12.9465475 L21.5998816,16.0309777 L21.5998816,17.5632587 L21.5998816,18.1250877 L21.5998816,20.5417251 L21.5998816,21.199363 L21.6001008,21.7499334 L21.5998816,24.1579612 C21.6001008,24.2802611 21.6075549,24.3917438 21.6226823,24.501019 L21.6248746,24.5177966 L21.6279439,24.5367818 L21.630794,24.5562085 L21.6340826,24.5760767 L21.6369327,24.5919713 L21.6395635,24.6074244 L21.6430713,24.625968 L21.6465791,24.6431872 L21.6494292,24.6581987 L21.6540331,24.6793915 L21.6573217,24.6948445 L21.6621449,24.716258 L21.6663104,24.7332564 L21.6713529,24.7540077 L21.6788069,24.7840307 L21.685384,24.8078726 C21.6943727,24.8412071 21.7042384,24.8745415 21.7147618,24.9072137 L21.7390971,24.9796223 L21.7632131,25.0447459 L21.7818483,25.0915466 C21.7919332,25.11583 21.8022373,25.1398926 21.8129799,25.1635137 L21.8349036,25.2109766 L21.8517849,25.2456356 L21.8697623,25.2811777 L21.882478,25.3052403 L21.907471,25.3511579 C21.9730229,25.4683804 22.0482212,25.5796424 22.1315312,25.6836194 C22.1495086,25.705916 22.1674861,25.7275503 22.1861212,25.7491845 C22.2983705,25.8796525 22.4242125,25.997758 22.5614549,26.1012935 C22.6138525,26.1410299 22.668004,26.178338 22.723471,26.2134385 L22.7664414,26.2401502 C22.9310883,26.3386083 23.0968315,26.4138867 23.2706864,26.4697385 C23.2991872,26.4790103 23.327688,26.4873991 23.356408,26.4955672 C23.4123134,26.5110202 24.0000877,26.5633399 24.0000877,26.5633399 C26.6999907,26.2626675 28.8000614,23.9579545 28.8000614,21.1589643 C28.8000614,18.3601949 26.6999907,16.0552611 24.0000877,15.7548095 L24.0000877,13.2277931 C26.7052524,12.9321982 28.810804,10.6248361 28.810804,7.82231378 C28.810804,5.29838804 27.1033867,3.17646254 24.7880253,2.56319694 C24.6078125,2.50028092 24.4177341,2.45811615 24.2208593,2.44001399 C24.1493881,2.4247817 24.0757244,2.41683441 24.0000877,2.41683441 C22.6831314,2.41970426 21.6182975,3.4817708 21.5998816,4.79881278 M11.9999342,2.41683441 C10.6744277,2.41683441 9.59994738,3.49876916 9.59994738,4.83347178 L9.59994738,24.1667915 C9.59994738,25.5014941 10.6744277,26.5834289 11.9999342,26.5834289 C13.3254408,26.5834289 14.3999211,25.5014941 14.3999211,24.1667915 L14.3999211,4.83347178 C14.3999211,3.49876916 13.3254408,2.41683441 11.9999342,2.41683441" id="Fill-4" fill="#FFFFFF" mask="url(#mask-4)"></path>
                </g>
                <path d="M14.4044487,19.2361149 C15.84047,18.0335366 17.6375034,17.2475107 19.6094021,17.0644012 L19.6094021,15.3905979 L12.8319631,15.3905979 C12.9972824,16.8300904 13.5587604,18.1491733 14.4044487,19.2361149 L14.4044487,19.2361149 Z M21.3905979,17.0644012 C23.3622796,17.2475107 25.1593131,18.0335366 26.5953343,19.2361149 C27.4412396,18.1491733 28.0025007,16.8300904 28.16782,15.3905979 L21.3905979,15.3905979 L21.3905979,17.0644012 Z M25.3419887,20.5115899 C24.2353042,19.6190395 22.8771695,19.0258861 21.3905979,18.855143 L21.3905979,22.1680369 C22.8771695,21.9970768 24.2353042,21.4039234 25.3419887,20.5115899 L25.3419887,20.5115899 Z M19.6094021,18.855143 C18.1226135,19.0258861 16.7644789,19.6190395 15.6577944,20.5115899 C16.7644789,21.4039234 18.1226135,21.9970768 19.6094021,22.1680369 L19.6094021,18.855143 Z M26.5929478,9.76084772 C25.1573605,10.9621243 23.3611948,11.7474993 21.3905979,11.9306088 L21.3905979,13.6094021 L28.16782,13.6094021 C28.0022837,12.1683909 27.4401548,10.8482233 26.5929478,9.76084772 L26.5929478,9.76084772 Z M19.6094021,11.9306088 C17.6385882,11.7474993 15.8426395,10.9623413 14.4068352,9.76084772 C13.5598452,10.8482233 12.9974993,12.1683909 12.8319631,13.6094021 L19.6094021,13.6094021 L19.6094021,11.9306088 Z M15.6610487,8.48580661 C16.7670823,9.37705536 18.1241322,9.96912396 19.6094021,10.1398671 L19.6094021,6.83196309 C18.1241322,7.00270622 16.7670823,7.59477482 15.6610487,8.48580661 L15.6610487,8.48580661 Z M21.3905979,10.1398671 C22.8758678,9.96912396 24.2327007,9.37705536 25.3389513,8.48580661 C24.2327007,7.59477482 22.8758678,7.00270622 21.3905979,6.83196309 L21.3905979,10.1398671 Z M11,14.5 C11,9.25317439 15.2531744,5 20.5,5 C25.7466087,5 30,9.25317439 30,14.5 C30,19.7468256 25.7466087,24 20.5,24 C15.2531744,24 11,19.7468256 11,14.5 L11,14.5 Z" id="Fill-7" fill="#F4811F"></path>
            </g>
        </g>
    </g>
</svg>