<?xml version="1.0" encoding="UTF-8"?>
<svg width="104px" height="35px" viewBox="0 0 104 35" version="1.1" xmlns="http://www.w3.org/2000/svg" xmlns:xlink="http://www.w3.org/1999/xlink">
    <title>google play</title>
    <g id="Symbols" stroke="none" stroke-width="1" fill="none" fill-rule="evenodd">
        <g id="footer" transform="translate(-1073.000000, -246.000000)" fill="#FFFFFF">
            <g id="Group-6" transform="translate(960.000000, 30.000000)">
                <g id="Group-15" transform="translate(113.000000, 216.000000)">
                    <g id="Group-13" transform="translate(0.385070, 0.000180)">
                        <path d="M5.11768519,1.20064492 C2.96290218,1.20064492 1.20885442,2.94218037 1.20885442,5.08293026 L1.20885442,29.2867312 C1.20885442,31.427481 2.96290218,33.1690165 5.11768519,33.1690165 L98.1855738,33.1690165 C100.340357,33.1690165 102.093196,31.427481 102.093196,29.2867312 L102.093196,5.08293026 C102.093196,2.94218037 100.340357,1.20064492 98.1855738,1.20064492 L5.11768519,1.20064492 Z M98.1855738,34.3696614 L5.11768519,34.3696614 C2.29561454,34.3696614 0,32.0896367 0,29.2867312 L0,5.08293026 C0,2.2800247 2.29561454,0 5.11768519,0 L98.1855738,0 C101.00704,0 103.30205,2.2800247 103.30205,5.08293026 L103.30205,29.2867312 C103.30205,32.0896367 101.00704,34.3696614 98.1855738,34.3696614 L98.1855738,34.3696614 Z" id="Fill-6"></path>
                        <path d="M33.3374246,8.82864224 C33.093236,8.09624884 32.9711417,7.70003602 32.9711417,7.6406041 L32.9366893,7.6406041 C32.9366893,7.69583376 32.810364,8.09204659 32.557109,8.82864224 L33.3374246,8.82864224 Z M34.3286852,10.0316884 L33.6420559,10.0316884 C33.6420559,9.93863847 33.5767777,9.67269562 33.4474303,9.23566087 L32.4561697,9.23566087 C32.3219868,9.66609207 32.2548954,9.9314346 32.2548954,10.0316884 L31.6093672,10.0316884 C31.6093672,9.97645878 31.7761891,9.522615 32.1104373,8.66895647 C32.4434767,7.81589825 32.610903,7.34584577 32.610903,7.25939933 L33.4214399,7.25939933 C33.4214399,7.34044287 33.5725467,7.80329148 33.8747603,8.64914583 C34.176974,9.49439985 34.3286852,9.9554475 34.3286852,10.0316884 L34.3286852,10.0316884 Z" id="Fill-8"></path>
                        <path d="M37.0932748,10.0319286 L36.5631921,10.0319286 C36.5631921,9.9736973 36.3667533,9.6663322 35.9732712,9.10983328 C35.5622607,8.52331824 35.3277429,8.12230284 35.2703223,7.90678707 L35.2364744,7.90678707 C35.2715312,8.21775411 35.289664,8.49870502 35.289664,8.75024013 C35.289664,9.10082844 35.2993348,9.52825804 35.3192809,10.0319286 L34.7922204,10.0319286 C34.8139798,9.59189222 34.8242551,9.10863264 34.8242551,8.58154952 C34.8242551,8.06347124 34.8139798,7.62283455 34.7922204,7.25903914 L35.4292867,7.25903914 C35.4292867,7.33467977 35.6057794,7.634841 35.9587649,8.16012315 C36.3347186,8.71842304 36.5504992,9.09662619 36.6061065,9.29533292 L36.6381411,9.29533292 C36.6036888,8.97896299 36.5867648,8.69441014 36.5867648,8.44347535 C36.5867648,8.05866866 36.577094,7.66365648 36.5565434,7.25903914 L37.0932748,7.25903914 C37.0727243,7.61142842 37.0630534,8.05206511 37.0630534,8.58154952 C37.0630534,9.11583651 37.0727243,9.59909609 37.0932748,10.0319286" id="Fill-10"></path>
                        <path d="M39.6154891,8.64134163 C39.6154891,8.36879524 39.5351003,8.13947206 39.3755315,7.95277177 C39.2153583,7.76607149 38.9711697,7.67242119 38.6423613,7.67242119 C38.5807097,7.67242119 38.4960899,7.67842441 38.3891063,7.6916315 C38.4030081,7.97558403 38.4102612,8.27214332 38.4102612,8.58190971 C38.4102612,8.9210919 38.4175144,9.2578728 38.4320206,9.59105176 C38.524498,9.60966176 38.6181842,9.6186666 38.7106616,9.6186666 C39.018315,9.6186666 39.2455797,9.52441597 39.3936643,9.33471407 C39.541749,9.14501218 39.6154891,8.91388803 39.6154891,8.64134163 M40.2011791,8.55009262 C40.2011791,8.95350931 40.0706228,9.30469795 39.8107191,9.60605983 C39.5508154,9.90682138 39.1857414,10.0575023 38.7173103,10.0575023 C38.5051563,10.0575023 38.2138224,10.0490978 37.8420997,10.0316884 C37.8608369,9.60365854 37.8699033,9.11979863 37.8699033,8.58190971 C37.8699033,8.06503207 37.8608369,7.62439539 37.8420997,7.25939933 L38.217449,7.25939933 C38.2791005,7.25939933 38.3703691,7.25699804 38.4924633,7.25279579 C38.6133488,7.24859353 38.6931332,7.24619224 38.7300032,7.24619224 C39.2461841,7.24619224 39.6203245,7.37406092 39.8524246,7.62979829 C40.0845246,7.88553566 40.2011791,8.19170011 40.2011791,8.55009262" id="Fill-12"></path>
                        <path d="M42.2622154,8.07265617 C42.2622154,7.79050461 42.079074,7.64882851 41.7133955,7.64882851 C41.5792127,7.64882851 41.4607449,7.659034 41.3573879,7.67884464 C41.373103,7.89856266 41.3809605,8.18551679 41.3809605,8.53910672 C41.4595361,8.54210833 41.5260231,8.54330898 41.5804215,8.54330898 C42.0349508,8.54330898 42.2622154,8.38662482 42.2622154,8.07265617 M43.0661036,10.0321087 L42.431455,10.0321087 C42.265842,9.52963878 42.1389123,9.21927207 42.0500615,9.10100854 C41.9612107,8.98394566 41.8185658,8.92451374 41.6209181,8.92451374 C41.538716,8.92451374 41.4589317,8.92511406 41.3833783,8.92691503 C41.3833783,9.29191108 41.390027,9.65990875 41.4027199,10.0321087 L40.8067547,10.0321087 C40.8248875,9.60347844 40.8345583,9.11961854 40.8345583,8.58172961 C40.8345583,8.06485198 40.8248875,7.62421529 40.8067547,7.25921924 L41.1772686,7.25921924 C41.2201829,7.25921924 41.3102426,7.25741827 41.4462387,7.25261569 C41.5828392,7.24841343 41.7091645,7.24661247 41.8246101,7.24661247 C42.4810181,7.24661247 42.809222,7.4693321 42.809222,7.91537169 C42.809222,8.26896161 42.6218496,8.51509382 42.2477092,8.65436863 L42.2477092,8.68618572 C42.3915628,8.725807 42.5184926,8.83746698 42.6272895,9.02176598 C42.7354819,9.20546465 42.8817533,9.54224555 43.0661036,10.0321087" id="Fill-14"></path>
                        <path d="M45.5481839,8.65628966 C45.5481839,8.35973037 45.4714217,8.11900106 45.3185016,7.93410175 C45.1655815,7.74980275 44.9770002,7.65735309 44.7527577,7.65735309 C44.5442303,7.65735309 44.3671332,7.75040307 44.2214662,7.93650304 C44.0745904,8.122603 44.0020591,8.35732908 44.0020591,8.6412816 C44.0020591,8.93664025 44.0788214,9.17676924 44.2323459,9.36226888 C44.3864748,9.54716819 44.5750561,9.64021817 44.7980898,9.64021817 C45.0066172,9.64021817 45.1837143,9.54656787 45.3299857,9.35986759 C45.4756527,9.1731673 45.5481839,8.93904154 45.5481839,8.65628966 M46.1399182,8.59445645 C46.1399182,9.03029056 46.0057353,9.39168468 45.7367652,9.67863881 C45.4677951,9.96559295 45.1353602,10.1084697 44.7400648,10.1084697 C44.3622978,10.1084697 44.0467868,9.97699907 43.7923229,9.71345751 C43.537859,9.45051628 43.4103249,9.11553635 43.4103249,8.70971836 C43.4103249,8.27388426 43.5451122,7.91249014 43.8134779,7.625536 C44.082448,7.33858187 44.4148829,7.1951048 44.8101783,7.1951048 C45.1879453,7.1951048 45.5040608,7.32657542 45.7585246,7.58951665 C46.0129885,7.85185757 46.1399182,8.1868375 46.1399182,8.59445645" id="Fill-16"></path>
                        <path d="M47.3525805,10.0319286 L46.7457356,10.0319286 C46.7638684,9.59189222 46.7735392,9.10863264 46.7735392,8.58154952 C46.7735392,8.06347124 46.7638684,7.62283455 46.7457356,7.25903914 L47.3525805,7.25903914 C47.3338433,7.61743165 47.3241724,8.05806833 47.3241724,8.58154952 C47.3241724,9.11703715 47.3338433,9.60029673 47.3525805,10.0319286" id="Fill-18"></path>
                        <path d="M49.8747948,8.64134163 C49.8747948,8.36879524 49.794406,8.13947206 49.6348372,7.95277177 C49.474664,7.76607149 49.2304754,7.67242119 48.901667,7.67242119 C48.8400154,7.67242119 48.7553956,7.67842441 48.648412,7.6916315 C48.6623138,7.97558403 48.6701714,8.27214332 48.6701714,8.58190971 C48.6701714,8.9210919 48.6774245,9.2578728 48.6913263,9.59105176 C48.7838037,9.60966176 48.8774899,9.6186666 48.9699673,9.6186666 C49.2776207,9.6186666 49.5054898,9.52441597 49.65297,9.33471407 C49.8010547,9.14501218 49.8747948,8.91388803 49.8747948,8.64134163 M50.4604848,8.55009262 C50.4604848,8.95350931 50.3299285,9.30469795 50.0700248,9.60605983 C49.8101211,9.90682138 49.4450471,10.0575023 48.976616,10.0575023 C48.7650664,10.0575023 48.4737325,10.0490978 48.1014054,10.0316884 C48.1201426,9.60365854 48.129209,9.11979863 48.129209,8.58190971 C48.129209,8.06503207 48.1201426,7.62439539 48.1014054,7.25939933 L48.4767547,7.25939933 C48.5384062,7.25939933 48.6296747,7.25699804 48.751769,7.25279579 C48.8726545,7.24859353 48.9524389,7.24619224 48.9893089,7.24619224 C49.5054898,7.24619224 49.8796302,7.37406092 50.1123347,7.62979829 C50.3438303,7.88553566 50.4604848,8.19170011 50.4604848,8.55009262" id="Fill-20"></path>
                        <path d="M53.5928079,8.82864224 C53.3480149,8.09624884 53.2259206,7.70003602 53.2259206,7.6406041 L53.1914682,7.6406041 C53.1914682,7.69583376 53.0651429,8.09204659 52.8118879,8.82864224 L53.5928079,8.82864224 Z M54.5834641,10.0316884 L53.8968348,10.0316884 C53.8968348,9.93863847 53.8321611,9.67269562 53.7016048,9.23566087 L52.7109486,9.23566087 C52.5767658,9.66609207 52.5096743,9.9314346 52.5096743,10.0316884 L51.8647505,10.0316884 C51.8647505,9.97645878 52.030968,9.522615 52.3652162,8.66895647 C52.6988601,7.81589825 52.865682,7.34584577 52.865682,7.25939933 L53.6762189,7.25939933 C53.6762189,7.34044287 53.8273257,7.80329148 54.1295393,8.64914583 C54.4323573,9.49439985 54.5834641,9.9554475 54.5834641,10.0316884 L54.5834641,10.0316884 Z" id="Fill-22"></path>
                        <path d="M56.5311703,8.10255223 C56.5311703,7.79878906 56.3280828,7.64690748 55.9219077,7.64690748 C55.8203639,7.64690748 55.7133803,7.65771329 55.6003524,7.67872457 C55.6160675,7.94706871 55.6239251,8.25083188 55.6239251,8.59001406 C55.6601907,8.59301568 55.7012918,8.59421632 55.7484371,8.59421632 C56.2700578,8.59421632 56.5311703,8.43032829 56.5311703,8.10255223 M57.0842212,7.98548935 C57.0842212,8.32467154 56.9572915,8.57560633 56.7034321,8.73709307 C56.4495727,8.89918013 56.1388971,8.97962334 55.7695921,8.97962334 C55.7025006,8.97962334 55.6553553,8.9784227 55.6263428,8.97602141 C55.6263428,9.24256458 55.6342004,9.59495386 55.6499155,10.0319886 L55.0473015,10.0319886 C55.0660388,9.62196837 55.0751052,9.13870879 55.0751052,8.58160955 C55.0751052,8.07073514 55.0660388,7.62949813 55.0473015,7.25909917 L55.4202331,7.25909917 C55.4734227,7.25909917 55.5749665,7.25729821 55.7248644,7.25249563 C55.8747624,7.24889369 56.0053187,7.2464924 56.1153244,7.2464924 C56.3867122,7.2464924 56.6163946,7.30772529 56.8031626,7.42959075 C56.9911394,7.55205653 57.0842212,7.73695585 57.0842212,7.98548935" id="Fill-24"></path>
                        <path d="M59.1028872,8.10255223 C59.1028872,7.79878906 58.8997997,7.64690748 58.4936246,7.64690748 C58.3920808,7.64690748 58.2844928,7.65771329 58.1720693,7.67872457 C58.1877844,7.94706871 58.195642,8.25083188 58.195642,8.59001406 C58.2319076,8.59301568 58.2730087,8.59421632 58.320154,8.59421632 C58.8417747,8.59421632 59.1028872,8.43032829 59.1028872,8.10255223 M59.6559381,7.98548935 C59.6559381,8.32467154 59.5290084,8.57560633 59.275149,8.73709307 C59.0212896,8.89918013 58.710614,8.97962334 58.3413089,8.97962334 C58.2742175,8.97962334 58.2264678,8.9784227 58.1980597,8.97602141 C58.1980597,9.24256458 58.2059173,9.59495386 58.2216324,10.0319886 L57.6190184,10.0319886 C57.6371512,9.62196837 57.6468221,9.13870879 57.6468221,8.58160955 C57.6468221,8.07073514 57.6371512,7.62949813 57.6190184,7.25909917 L57.99195,7.25909917 C58.0451396,7.25909917 58.1466834,7.25729821 58.2965813,7.25249563 C58.4464793,7.24889369 58.5764311,7.2464924 58.6870413,7.2464924 C58.9584291,7.2464924 59.1881115,7.30772529 59.3748795,7.42959075 C59.5622519,7.55205653 59.6559381,7.73695585 59.6559381,7.98548935" id="Fill-26"></path>
                        <path d="M63.2689622,8.65628966 C63.2689622,8.35973037 63.1922,8.11900106 63.0392799,7.93410175 C62.8863598,7.74980275 62.6977785,7.65735309 62.473536,7.65735309 C62.2644042,7.65735309 62.087307,7.75040307 61.9416401,7.93650304 C61.7953687,8.122603 61.722233,8.35732908 61.722233,8.6412816 C61.722233,8.93664025 61.7995997,9.17676924 61.9531242,9.36226888 C62.1066487,9.54716819 62.29523,9.64021817 62.5182636,9.64021817 C62.7273954,9.64021817 62.9038882,9.54656787 63.0501596,9.35986759 C63.1958265,9.1731673 63.2689622,8.93904154 63.2689622,8.65628966 M63.8606965,8.59445645 C63.8606965,9.03029056 63.7265136,9.39168468 63.4575435,9.67863881 C63.1885734,9.96559295 62.8561384,10.1084697 62.4602386,10.1084697 C62.083076,10.1084697 61.7669606,9.97699907 61.5124968,9.71345751 C61.2580329,9.45051628 61.1311032,9.11553635 61.1311032,8.70971836 C61.1311032,8.27388426 61.265286,7.91249014 61.5342561,7.625536 C61.8026218,7.33858187 62.1350568,7.1951048 62.5309566,7.1951048 C62.9081192,7.1951048 63.224839,7.32657542 63.4786985,7.58951665 C63.7337667,7.85185757 63.8606965,8.1868375 63.8606965,8.59445645" id="Fill-28"></path>
                        <path d="M66.7668429,10.0319286 L66.2373647,10.0319286 C66.2373647,9.9736973 66.0409259,9.6663322 65.6474437,9.10983328 C65.2358288,8.52331824 65.0013111,8.12230284 64.9438905,7.90678707 L64.9100425,7.90678707 C64.9457037,8.21775411 64.9638366,8.49870502 64.9638366,8.75024013 C64.9638366,9.10082844 64.9735074,9.52825804 64.9934535,10.0319286 L64.4657885,10.0319286 C64.4875479,9.59189222 64.4984276,9.10863264 64.4984276,8.58154952 C64.4984276,8.06347124 64.4875479,7.62283455 64.4657885,7.25903914 L65.1028548,7.25903914 C65.1028548,7.33467977 65.2793476,7.634841 65.6323331,8.16012315 C66.0082868,8.71842304 66.2246717,9.09662619 66.2796746,9.29533292 L66.3123137,9.29533292 C66.2778613,8.97896299 66.2609374,8.69441014 66.2609374,8.44347535 C66.2609374,8.05866866 66.2506621,7.66365648 66.230716,7.25903914 L66.7668429,7.25903914 C66.7468968,7.61142842 66.7366216,8.05206511 66.7366216,8.58154952 C66.7366216,9.11583651 66.7468968,9.59909609 66.7668429,10.0319286" id="Fill-30"></path>
                        <path d="M41.471806,18.9156804 C41.471806,20.2916195 41.0607954,21.3884086 40.2387744,22.2048472 C39.3055388,23.1773696 38.0906401,23.6636308 36.5946828,23.6636308 C35.1627947,23.6636308 33.9454783,23.170766 32.9439424,22.1838359 C31.9405933,21.1981064 31.4401275,19.9752496 31.4401275,18.516466 C31.4401275,17.0576824 31.9405933,15.8354259 32.9439424,14.8490961 C33.9454783,13.8627663 35.1627947,13.3699015 36.5946828,13.3699015 C37.3054892,13.3699015 37.9842609,13.5067751 38.6316025,13.7823231 C39.2777352,14.0572708 39.7957293,14.4252684 40.1831671,14.8833145 L39.3103742,15.7507804 C38.6545707,14.9709615 37.7491388,14.5801516 36.5946828,14.5801516 C35.5502326,14.5801516 34.6478227,14.9451477 33.88564,15.6751398 C33.1234573,16.4039313 32.7426682,17.3518404 32.7426682,18.516466 C32.7426682,19.6816919 33.1234573,20.6290007 33.88564,21.3583925 C34.6478227,22.0877843 35.5502326,22.4527804 36.5946828,22.4527804 C37.7032023,22.4527804 38.6267671,22.085383 39.3659816,21.351789 C39.8465012,20.8745326 40.1233288,20.208775 40.197069,19.3557168 L36.5946828,19.3557168 L36.5946828,18.1724812 L41.4029013,18.1724812 C41.4488377,18.4294192 41.471806,18.6773524 41.471806,18.9156804" id="Fill-32"></path>
                        <path d="M43.931462,21.8399112 C44.3702762,22.2847501 44.8894792,22.5074697 45.4902798,22.5074697 C46.090476,22.5074697 46.6102834,22.2847501 47.0490976,21.8399112 C47.4879117,21.3950722 47.7073188,20.8055556 47.7073188,20.0719615 C47.7073188,19.3377671 47.4879117,18.7488508 47.0490976,18.3028112 C46.6102834,17.8579723 46.090476,17.635853 45.4902798,17.635853 C44.8894792,17.635853 44.3702762,17.8579723 43.931462,18.3028112 C43.4920435,18.7488508 43.2732408,19.3377671 43.2732408,20.0719615 C43.2732408,20.8055556 43.4920435,21.3950722 43.931462,21.8399112 M42.9825113,17.5049827 C43.6383148,16.8218157 44.4736332,16.4796319 45.4902798,16.4796319 C46.506322,16.4796319 47.3422448,16.8218157 47.9986527,17.5049827 C48.6538518,18.18875 48.9814514,19.0442095 48.9814514,20.0719615 C48.9814514,21.0997136 48.6538518,21.9545727 47.9986527,22.63834 C47.3422448,23.3221073 46.506322,23.6636908 45.4902798,23.6636908 C44.4736332,23.6636908 43.6383148,23.3221073 42.9825113,22.63834 C42.3267078,21.9545727 41.9985038,21.0997136 41.9985038,20.0719615 C41.9985038,19.0442095 42.3267078,18.18875 42.9825113,17.5049827" id="Fill-34"></path>
                        <path d="M51.34452,21.8399112 C51.7833342,22.2847501 52.3025371,22.5074697 52.9033378,22.5074697 C53.503534,22.5074697 54.0233414,22.2847501 54.4621556,21.8399112 C54.9009697,21.3950722 55.1203768,20.8055556 55.1203768,20.0719615 C55.1203768,19.3377671 54.9009697,18.7488508 54.4621556,18.3028112 C54.0233414,17.8579723 53.503534,17.635853 52.9033378,17.635853 C52.3025371,17.635853 51.7833342,17.8579723 51.34452,18.3028112 C50.9051014,18.7488508 50.6862988,19.3377671 50.6862988,20.0719615 C50.6862988,20.8055556 50.9051014,21.3950722 51.34452,21.8399112 M50.3955693,17.5049827 C51.0513728,16.8218157 51.8866912,16.4796319 52.9033378,16.4796319 C53.9193799,16.4796319 54.7553028,16.8218157 55.4117107,17.5049827 C56.0669098,18.18875 56.3945093,19.0442095 56.3945093,20.0719615 C56.3945093,21.0997136 56.0669098,21.9545727 55.4117107,22.63834 C54.7553028,23.3221073 53.9193799,23.6636908 52.9033378,23.6636908 C51.8866912,23.6636908 51.0513728,23.3221073 50.3955693,22.63834 C49.7397658,21.9545727 49.4115618,21.0997136 49.4115618,20.0719615 C49.4115618,19.0442095 49.7397658,18.18875 50.3955693,17.5049827" id="Fill-36"></path>
                        <path d="M60.2610302,22.5076498 C60.8612264,22.5076498 61.3719674,22.2873315 61.7920443,21.8466948 C62.2127257,21.4066584 62.4224619,20.8147405 62.4224619,20.0715413 C62.4224619,19.3283421 62.2127257,18.7370245 61.7920443,18.2963878 C61.3719674,17.8557511 60.8612264,17.6360331 60.2610302,17.6360331 C59.669296,17.6360331 59.1615771,17.8581524 58.7372692,18.3029913 C58.3117525,18.7484306 58.0995985,19.3379472 58.0995985,20.0715413 C58.0995985,20.8057357 58.3117525,21.394652 58.7372692,21.8400912 C59.1615771,22.2849302 59.669296,22.5076498 60.2610302,22.5076498 M60.1643219,26.6360674 C59.3604337,26.6360674 58.7046301,26.4367603 58.1963069,26.0375459 C57.6879836,25.6383314 57.323514,25.1814861 57.1016892,24.6682104 L58.265816,24.1867517 C58.3951634,24.5529484 58.6333077,24.8609139 58.9796445,25.1082467 C59.3253769,25.3561799 59.7200679,25.4798463 60.1643219,25.4798463 C60.8660619,25.4798463 61.4179039,25.2715344 61.819848,24.85371 C62.2217921,24.4364859 62.4224619,23.8703818 62.4224619,23.1541971 L62.4224619,22.5076498 L62.3668546,22.5076498 C62.1450298,22.8378272 61.8313321,23.1133752 61.425157,23.3330932 C61.0183775,23.5534115 60.5608261,23.6638709 60.0531073,23.6638709 C59.1754789,23.6638709 58.4181316,23.3198861 57.7804609,22.6313162 C57.1433947,21.9433467 56.8242571,21.0902885 56.8242571,20.0715413 C56.8242571,19.0533944 57.1433947,18.1997359 57.7804609,17.5117663 C58.4181316,16.8237968 59.1754789,16.479812 60.0531073,16.479812 C60.5608261,16.479812 61.0183775,16.5902713 61.425157,16.8099894 C61.8313321,17.0303077 62.1450298,17.3052554 62.3668546,17.6360331 L62.4224619,17.6360331 L62.4224619,16.69953 L63.642196,16.69953 L63.642196,23.0989674 C63.642196,24.2551885 63.3043212,25.1334603 62.6303849,25.7349834 C61.9564485,26.3353058 61.1338231,26.6360674 60.1643219,26.6360674" id="Fill-38"></path>
                        <polygon id="Fill-40" points="64.8476052 23.4436126 66.1217378 23.4436126 66.1217378 13.5899197 64.8476052 13.5899197"></polygon>
                        <path d="M72.1630482,19.2598453 C72.1352445,18.8738379 71.9569385,18.5076412 71.629339,18.1588539 C71.301135,17.8100666 70.8139666,17.635973 70.1672295,17.635973 C69.6963807,17.635973 69.2877879,17.7824517 68.9414512,18.0760094 C68.5951144,18.3701674 68.35697,18.7645793 68.2276226,19.2598453 L72.1630482,19.2598453 Z M70.3340514,23.6638108 C69.3083385,23.6638108 68.4742289,23.3246287 67.8329316,22.6450636 C67.1904255,21.9666993 66.8694747,21.1082381 66.8694747,20.0720816 C66.8694747,19.089954 67.1813591,18.246501 67.805128,17.5393211 C68.4282924,16.8333419 69.2255319,16.479752 70.1950332,16.479752 C71.2020089,16.479752 72.0077104,16.8057271 72.612742,17.4570769 C73.2177737,18.1084268 73.5205917,18.980095 73.5205917,20.0720816 L73.5072943,20.305607 L68.1448161,20.305607 C68.1810817,20.9845717 68.4101596,21.5218603 68.8302365,21.9156718 C69.2509179,22.3100837 69.7423172,22.5075898 70.3062478,22.5075898 C71.2201417,22.5075898 71.8396796,22.1221828 72.1630482,21.3513687 L73.2987669,21.8196203 C73.0775466,22.3425011 72.7118681,22.7807365 72.2041492,23.1337261 C71.6964304,23.4867157 71.0726615,23.6638108 70.3340514,23.6638108 L70.3340514,23.6638108 Z" id="Fill-42"></path>
                        <path d="M78.5366727,18.2415183 L80.6703007,18.2415183 C81.2058232,18.2415183 81.635571,18.0620219 81.9589395,17.7042297 C82.2823081,17.3470378 82.4442946,16.952626 82.4442946,16.5209941 C82.4442946,16.0899626 82.2823081,15.6955508 81.9589395,15.3377586 C81.635571,14.9793661 81.2058232,14.8010703 80.6703007,14.8010703 L78.5366727,14.8010703 L78.5366727,18.2415183 Z M78.5366727,23.4433124 L77.2619357,23.4433124 L77.2619357,13.5896196 L80.6424971,13.5896196 C81.4832553,13.5896196 82.2103813,13.8675689 82.8250837,14.4222668 C83.4391818,14.9775651 83.7462308,15.6775411 83.7462308,16.5209941 C83.7462308,17.3650475 83.4391818,18.0650235 82.8250837,18.6197215 C82.2103813,19.1750197 81.4832553,19.4523687 80.6424971,19.4523687 L78.5366727,19.4523687 L78.5366727,23.4433124 Z" id="Fill-43"></path>
                        <polygon id="Fill-44" points="84.5785271 23.4436126 85.8526596 23.4436126 85.8526596 13.5899197 84.5785271 13.5899197"></polygon>
                        <path d="M89.3437707,22.5076498 C89.8702269,22.5076498 90.3483288,22.312545 90.7780765,21.9223354 C91.2078243,21.5327262 91.4217915,21.0716785 91.4217915,20.5397928 C91.0621573,20.2456348 90.5217994,20.0991561 89.8013221,20.0991561 C89.1817843,20.0991561 88.7157709,20.2324277 88.4014687,20.4977702 C88.087771,20.7649137 87.9306199,21.0758808 87.9306199,21.4342733 C87.9306199,21.7644506 88.0732648,22.0255909 88.3603677,22.2188947 C88.6462617,22.4109979 88.9744657,22.5076498 89.3437707,22.5076498 M89.1358478,23.6638709 C88.4153706,23.6638709 87.8127566,23.4567596 87.328006,23.0443381 C86.842651,22.6313162 86.6002756,22.0856231 86.6002756,21.4066584 C86.6002756,20.6724641 86.8867741,20.0967548 87.4597711,19.6795307 C88.0321637,19.2623066 88.7387391,19.0533944 89.5794974,19.0533944 C90.3277782,19.0533944 90.9424807,19.1908682 91.4217915,19.4664162 L91.4217915,19.2731124 C91.4217915,18.7778464 91.251343,18.3810332 90.9098417,18.0832733 C90.5677359,17.784913 90.1476589,17.6360331 89.6490065,17.6360331 C89.2797015,17.6360331 88.9442444,17.7230798 88.6444485,17.8971733 C88.3440481,18.0712669 88.1385429,18.3101952 88.0273283,18.6127577 L86.8632015,18.1174917 C87.0203526,17.714075 87.3298193,17.3400741 87.7922061,16.995489 C88.2533841,16.6515042 88.8632511,16.479812 89.6212028,16.479812 C90.4897647,16.479812 91.2096375,16.7325478 91.7826345,17.2368186 C92.3550271,17.7416898 92.6415256,18.4524716 92.6415256,19.3697643 L92.6415256,23.4435525 L91.4217915,23.4435525 L91.4217915,22.5076498 L91.367393,22.5076498 C90.8590698,23.2778635 90.1150199,23.6638709 89.1358478,23.6638709" id="Fill-45"></path>
                        <polygon id="Fill-46" points="95.4134288 26.415629 94.0969863 26.415629 95.6769591 23.0166032 92.8778566 16.69941 94.2632038 16.69941 96.2862217 21.5446125 96.3140253 21.5446125 98.2814359 16.69941 99.6667831 16.69941"></polygon>
                        <path d="M7.66347216,18.3493962 C7.66347216,15.2019056 7.66407658,12.0550153 7.66165888,8.90752461 C7.66105445,8.52091695 7.73721228,8.16852767 8.01222666,7.87677095 C8.1198147,7.76331001 8.19657696,7.73269356 8.32834209,7.86596515 C10.4601569,10.027126 12.5974115,12.1828839 14.7340617,14.3392422 C16.1182,15.7355923 17.5011294,17.1331429 18.8907076,18.5234898 C19.0254949,18.6585623 19.036979,18.7294004 18.8943342,18.8704761 C15.4962444,22.2262787 12.1011767,25.5856832 8.71396665,28.9540925 C8.50725254,29.1594028 8.36158558,29.1377912 8.16333346,28.9859096 C7.80128156,28.7091609 7.66165888,28.3375613 7.66165888,27.8951237 C7.6622633,26.0311224 7.65924117,24.1671212 7.65803231,22.30312 C7.65682346,20.9854122 7.65803231,19.667104 7.65803231,18.3493962 L7.66347216,18.3493962 Z" id="Fill-47"></path>
                        <path d="M8.88115121,7.51742191 C9.14045049,7.51507667 9.32298751,7.59011698 9.49887582,7.68796954 C13.8392676,10.1030668 18.1784506,12.519965 22.5212601,14.9296594 C22.720721,15.040719 22.7170945,15.1025522 22.5629655,15.2532332 C21.591651,16.2017427 20.6294029,17.1580563 19.6665504,18.11437 C19.5631933,18.2182258 19.499124,18.2776577 19.3601058,18.1365819 C15.9076175,14.6391033 12.449085,11.1470275 8.99297025,7.65315084 C8.96395774,7.62373503 8.94038508,7.58951665 8.88115121,7.51742191" id="Fill-48"></path>
                        <path d="M9.85270751,28.8737693 C13.0029821,25.7112706 16.15507,22.5511732 19.2974871,19.3808703 C19.4927171,19.1845649 19.5839856,19.210979 19.7586651,19.3916761 C20.556509,20.2171195 21.3670459,21.0317571 22.1806049,21.8421924 C22.3238541,21.9850691 22.3353383,22.0433004 22.1413171,22.1489572 C18.0976991,24.347338 14.0571032,26.5523224 10.0159029,28.7555058 C9.94881144,28.7921255 9.88715986,28.8515574 9.85270751,28.8737693" id="Fill-49"></path>
                        <path d="M27.8480166,18.4367432 C27.8347192,18.7915337 27.666084,19.0406676 27.4110158,19.2273678 C27.2224345,19.365442 27.0145115,19.478903 26.8084018,19.5923639 C25.58625,20.2635244 24.3598672,20.9286817 23.1401331,21.6046448 C22.9751245,21.6958938 22.8772073,21.6916915 22.7412111,21.5518164 C21.8726492,20.6609379 20.9962298,19.7766629 20.1155793,18.8983911 C19.9868363,18.7705225 19.9838142,18.7002847 20.1149749,18.5718157 C21.1412923,17.5674762 22.1627743,16.5571335 23.1788164,15.5425886 C23.2990974,15.4231244 23.3843217,15.4099173 23.5336152,15.4939625 C24.7412608,16.1735275 25.9549506,16.8440877 27.1662227,17.5176495 C27.5403632,17.7265617 27.8323015,17.9961065 27.8480166,18.4367432" id="Fill-50"></path>
                    </g>
                </g>
            </g>
        </g>
    </g>
</svg>